<svg width="17" height="17" viewBox="0 0 17 17" fill="none" xmlns="http://www.w3.org/2000/svg">
<path d="M16.2917 0H4.95833C4.77047 0 4.5903 0.0746279 4.45747 0.207466C4.32463 0.340304 4.25 0.520472 4.25 0.708333V4.25H0.708333C0.520472 4.25 0.340304 4.32463 0.207466 4.45747C0.0746279 4.5903 0 4.77047 0 4.95833V16.2917C0 16.4795 0.0746279 16.6597 0.207466 16.7925C0.340304 16.9254 0.520472 17 0.708333 17H12.0417C12.2295 17 12.4097 16.9254 12.5425 16.7925C12.6754 16.6597 12.75 16.4795 12.75 16.2917V12.75H16.2917C16.4795 12.75 16.6597 12.6754 16.7925 12.5425C16.9254 12.4097 17 12.2295 17 12.0417V0.708333C17 0.520472 16.9254 0.340304 16.7925 0.207466C16.6597 0.0746279 16.4795 0 16.2917 0ZM11.3333 15.5833H1.41667V5.66667H11.3333V15.5833ZM15.5833 11.3333H12.75V4.95833C12.75 4.77047 12.6754 4.5903 12.5425 4.45747C12.4097 4.32463 12.2295 4.25 12.0417 4.25H5.66667V1.41667H15.5833V11.3333Z" fill="#585858"/>
</svg>
