<svg width="300" height="81" viewBox="0 0 300 81" fill="none" xmlns="http://www.w3.org/2000/svg">
<path fill-rule="evenodd" clip-rule="evenodd" d="M292.996 41.3269C292.069 41.3269 291.123 41.3269 290.467 41.2424L299.252 0H240.72L238.903 8.55007C236.815 8.21726 235.355 9.07042 234.91 10.4353C234.476 11.799 232.907 17.614 232.907 21.4407C232.907 27.4454 234.418 29.6461 234.418 29.6461L223.68 80.1909H282.206L289.275 46.9392C297.284 46.6638 299.531 44.165 299.531 42.7048C299.531 40.6743 295.523 41.3269 292.996 41.3269Z" fill="#F0BD2D"/>
<path fill-rule="evenodd" clip-rule="evenodd" d="M266.73 36.7872C266.73 36.7872 277.168 47.2387 291.751 45.4554C297.034 44.7963 298.205 43.4033 298.04 42.7648C297.88 42.1512 296.072 42.4113 294.31 42.484C293.289 42.5414 284.513 43.684 272.822 34.8012C268.273 33.6174 266.73 36.7872 266.73 36.7872ZM232.844 59.0735L244.324 55.0906L260.219 66.3487L254.066 70.2015L263.156 77.7607L263.288 75.0917L266.034 68.3401L265.82 62.5198L260.041 53.1317L261.16 49.0545L260.778 44.4819C245.835 44.5155 239.426 37.9786 235.893 32.6254L230.408 58.7114L232.844 59.0735ZM265.881 24.096L262.597 20.9533L257.708 25.2299L265.881 24.096ZM280.067 30.6275C281.052 32.4444 281.396 34.9529 281.683 38.7949C278.263 37.2317 272.533 32.62 272.533 32.62C266.01 31.317 263.765 36.5389 263.765 36.5389L265.239 37.8485C264.683 40.4015 262.872 41.6894 262.872 41.6894C233.753 41.6894 234.391 23.5312 234.391 21.44C234.391 17.6143 235.893 12.0259 236.37 10.802C236.85 9.58894 239.042 9.98896 239.042 9.98896L253.286 12.065L256.283 10.4237C256.283 10.4237 260.67 10.0974 265.45 11.4449C265.45 11.4449 272.801 17.5991 275.642 22.0861L275.425 24.4114C275.425 24.4114 279.166 28.9407 280.067 30.6275ZM277.178 66.3878C278.304 66.3878 279.081 65.7048 279.081 65.7048C279.196 64.0299 278.809 63.1626 278.809 63.1626C277.461 63.516 276.361 63.039 276.214 61.6612C276.029 59.8107 280.211 51.7116 281.281 49.0101C281.702 47.9553 281.737 46.4495 281.737 46.4495C277.273 45.8294 273.415 43.4423 273.415 43.4423L273.85 46.2739C274.027 48.0117 271.774 57.2176 272.236 61.7577C272.236 61.7577 272.626 66.4062 277.178 66.3878ZM244.147 65.1486L244.114 57.0701L252.833 63.1897L250.3 75.6446L251.473 78.0621H240.956L239.762 75.6663L244.147 65.1486Z" fill="#003B65"/>
<path fill-rule="evenodd" clip-rule="evenodd" d="M200.317 59.6295C201.747 59.6295 202.73 60.2008 203.312 61.3738C203.892 62.5435 203.943 64.2997 203.476 66.6326C203.219 67.8478 202.881 68.9113 202.445 69.8154C202.022 70.7163 201.53 71.4708 200.967 72.0454C200.411 72.6503 199.81 73.0915 199.154 73.369C198.489 73.6682 197.815 73.7983 197.129 73.7983C196.736 73.7983 196.351 73.7495 195.956 73.6747C195.557 73.5837 195.195 73.4958 194.88 73.369C194.549 73.2519 194.3 73.1305 194.103 73.0037C193.913 72.8714 193.822 72.7587 193.841 72.6687C193.865 72.6286 193.87 72.5809 193.898 72.5321C193.898 72.4812 193.932 72.4237 193.985 72.3749L194.454 71.577C194.505 71.4957 194.583 71.4708 194.678 71.4708C194.654 71.4708 194.726 71.4957 194.892 71.5434C195.086 71.5944 195.297 71.6583 195.58 71.7223C195.854 71.8101 196.159 71.8697 196.473 71.9066C196.8 71.9608 197.101 71.9879 197.389 71.9879C197.793 71.9879 198.197 71.9001 198.591 71.7342C198.988 71.577 199.353 71.2811 199.688 70.8702C200.028 70.4767 200.335 69.9477 200.631 69.2766C200.907 68.6056 201.161 67.7752 201.366 66.7833C201.161 67.2516 200.919 67.6148 200.668 67.914C200.411 68.2002 200.146 68.4332 199.876 68.6056C199.604 68.7726 199.304 68.8875 199.003 68.9568C198.694 69.0349 198.377 69.0479 198.058 69.0479C197.277 69.0479 196.66 68.9211 196.174 68.6847C195.687 68.4332 195.337 68.108 195.095 67.6744C194.838 67.2646 194.715 66.7714 194.678 66.2217C194.654 65.6504 194.693 65.0574 194.833 64.4146C194.968 63.749 195.176 63.1386 195.451 62.5489C195.749 61.9689 196.101 61.4551 196.543 61.0355C196.993 60.5943 197.524 60.2583 198.163 60.01C198.779 59.739 199.514 59.6295 200.317 59.6295ZM189.268 59.6144C189.996 59.6144 190.616 59.6936 191.102 59.8746C191.594 60.0437 191.982 60.28 192.257 60.5944C192.544 60.9023 192.716 61.2774 192.786 61.7034C192.867 62.1414 192.841 62.6314 192.737 63.1387C192.608 63.8011 192.305 64.3713 191.825 64.8375C191.357 65.321 190.701 65.7112 189.924 66.0278C190.758 66.3606 191.357 66.8159 191.712 67.4328C192.067 68.0257 192.163 68.7727 191.976 69.6399C191.712 70.9939 191.087 72.0086 190.108 72.7284C189.105 73.4418 187.859 73.7832 186.354 73.7832C184.792 73.7832 183.679 73.4266 183.008 72.7133C182.341 71.9934 182.168 70.9625 182.428 69.6182C182.607 68.7727 182.993 68.0409 183.607 67.4328C184.198 66.8159 184.985 66.3422 185.98 66.0007C185.312 65.7221 184.84 65.3394 184.553 64.8863C184.271 64.4147 184.188 63.8336 184.339 63.1453C184.453 62.6314 184.638 62.1587 184.886 61.7089C185.143 61.2774 185.478 60.9023 185.874 60.5944C186.291 60.28 186.763 60.0437 187.331 59.8746C187.885 59.6871 188.534 59.6144 189.268 59.6144ZM157.549 63.3807C157.884 63.3807 158.196 63.4132 158.479 63.4772C158.78 63.5368 159.045 63.6138 159.28 63.7189C159.513 63.8013 159.725 63.913 159.897 64.0214C160.073 64.1331 160.203 64.236 160.284 64.3141C160.345 64.3835 160.377 64.4442 160.372 64.5081C160.359 64.5862 160.308 64.6946 160.2 64.8139L159.652 65.4144C159.581 65.4784 159.505 65.5196 159.414 65.499C159.326 65.499 159.241 65.4784 159.145 65.4654C158.982 65.4025 158.725 65.2941 158.432 65.1705C158.132 65.0404 157.766 64.9884 157.338 64.9884C156.861 64.9884 156.443 65.0794 156.082 65.2876C155.727 65.4936 155.416 65.7646 155.155 66.079C154.902 66.4096 154.696 66.7955 154.528 67.2248C154.359 67.6628 154.221 68.1127 154.14 68.5842C154.037 69.0591 153.989 69.5122 153.971 69.9632C153.943 70.386 154.01 70.7665 154.128 71.0928C154.258 71.4289 154.445 71.6858 154.729 71.882C154.995 72.0663 155.382 72.1758 155.832 72.1758C156.214 72.1758 156.56 72.1086 156.896 72.0088C157.22 71.9004 157.543 71.7942 157.87 71.701C157.978 71.6435 158.093 71.637 158.169 71.637C158.274 71.637 158.326 71.6673 158.368 71.7335L158.631 72.3384C158.725 72.5259 158.682 72.6885 158.531 72.8306C158.301 73.03 157.918 73.2512 157.334 73.4539C156.766 73.6685 156.068 73.7769 155.241 73.7769C154.359 73.7769 153.653 73.623 153.13 73.3422C152.617 73.0517 152.236 72.6679 151.986 72.1964C151.746 71.7226 151.626 71.1633 151.598 70.528C151.598 69.9112 151.665 69.2401 151.813 68.5647C151.959 67.8623 152.172 67.2064 152.441 66.5787C152.707 65.9467 153.073 65.3906 153.535 64.9277C153.971 64.4442 154.528 64.081 155.188 63.8013C155.832 63.526 156.624 63.3807 157.549 63.3807ZM166.413 63.3869C166.99 63.3923 167.516 63.4714 167.991 63.6373C168.471 63.801 168.862 64.0547 169.16 64.3994C169.462 64.7344 169.668 65.1702 169.768 65.683C169.883 66.2066 169.856 66.7952 169.719 67.4847C169.644 67.8468 169.547 68.1644 169.428 68.3975C169.312 68.6392 169.148 68.8333 168.955 68.9742C168.755 69.1227 168.512 69.2398 168.242 69.3016C167.954 69.3623 167.613 69.3916 167.23 69.3916H163.255C163.197 69.7992 163.189 70.1602 163.218 70.5071C163.243 70.8453 163.325 71.1293 163.475 71.3776C163.612 71.6258 163.816 71.834 164.08 71.9608C164.35 72.1082 164.705 72.1754 165.126 72.1754C165.5 72.1754 165.887 72.1299 166.268 72.0356C166.661 71.9337 167.085 71.834 167.498 71.7006C167.716 71.6377 167.843 71.6128 167.89 71.6377C167.939 71.6681 167.991 71.7006 167.991 71.7342L168.265 72.3391C168.372 72.5256 168.324 72.6958 168.162 72.8313C168.052 72.9516 167.88 73.0525 167.638 73.1598C167.398 73.2812 167.124 73.3809 166.8 73.472C166.471 73.5566 166.126 73.6227 165.73 73.6856C165.358 73.7495 164.962 73.7766 164.54 73.7766C163.657 73.7766 162.938 73.6227 162.413 73.3538C161.887 73.0763 161.493 72.6958 161.252 72.2264C161.003 71.7581 160.873 71.2204 160.858 70.6068C160.841 69.991 160.909 69.3558 161.034 68.6847C161.169 67.9378 161.396 67.2646 161.689 66.612C161.97 65.9735 162.349 65.4141 162.787 64.949C163.218 64.4504 163.742 64.0818 164.331 63.801C164.942 63.5256 165.63 63.3869 166.413 63.3869ZM129.814 59.5628C130.236 59.5628 130.663 59.6084 131.07 59.6745C131.497 59.7384 131.893 59.8198 132.234 59.9347C132.588 60.0377 132.884 60.1276 133.119 60.2371C133.376 60.339 133.528 60.4333 133.597 60.5092C133.652 60.5515 133.685 60.609 133.673 60.6783C133.664 60.739 133.627 60.854 133.528 61.0079L133.044 61.8025C133.008 61.8752 132.933 61.9174 132.83 61.8968C132.739 61.8817 132.633 61.8632 132.546 61.8329C132.434 61.8025 132.27 61.7602 132.04 61.6974C131.822 61.6486 131.569 61.6031 131.286 61.5608C131.007 61.5152 130.713 61.4675 130.419 61.4285C130.113 61.3917 129.826 61.3743 129.56 61.3743C129.049 61.3743 128.602 61.4404 128.26 61.5673C127.9 61.6974 127.604 61.8632 127.371 62.0594C127.141 62.2622 126.954 62.4606 126.837 62.6915C126.722 62.9126 126.637 63.1392 126.597 63.3473C126.509 63.6921 126.55 64.0064 126.722 64.2981C126.876 64.5983 127.275 64.8856 127.87 65.1274L129.593 65.8255C130.097 66.0282 130.551 66.2754 130.889 66.5779C131.249 66.8738 131.523 67.2066 131.739 67.5698C131.934 67.9319 132.053 68.3059 132.106 68.7178C132.168 69.1232 132.165 69.533 132.067 69.9623C131.959 70.5499 131.733 71.0659 131.394 71.5223C131.038 71.9874 130.62 72.3874 130.11 72.7278C129.604 73.0519 129.021 73.3023 128.365 73.4715C127.713 73.6688 127.018 73.7501 126.277 73.7501C125.863 73.7501 125.461 73.711 125.044 73.6471C124.624 73.5831 124.249 73.5018 123.889 73.4205C123.527 73.3229 123.213 73.2059 122.959 73.1094C122.696 73.0042 122.518 72.8882 122.412 72.8156C122.352 72.7408 122.327 72.6736 122.33 72.6096C122.352 72.5532 122.406 72.447 122.484 72.3115L122.961 71.5136C123.004 71.4377 123.089 71.4041 123.186 71.4226C123.294 71.428 123.385 71.4377 123.478 71.48C123.602 71.5136 123.774 71.5711 124.019 71.6134C124.256 71.6676 124.53 71.7218 124.83 71.7521C125.114 71.8096 125.422 71.8453 125.73 71.8703C126.054 71.9061 126.344 71.9277 126.637 71.9277C127.481 71.9277 128.194 71.7673 128.762 71.4583C129.351 71.1299 129.684 70.6908 129.787 70.1596C129.87 69.7065 129.78 69.301 129.496 68.9628C129.203 68.6181 128.832 68.346 128.394 68.1704L126.658 67.4397C126.235 67.2641 125.858 67.0494 125.519 66.8044C125.18 66.5681 124.9 66.2819 124.69 65.974C124.474 65.651 124.337 65.2943 124.256 64.9062C124.171 64.5084 124.198 64.0639 124.298 63.5674C124.431 62.9419 124.663 62.3923 125.002 61.8968C125.349 61.3917 125.779 60.9754 126.277 60.6296C126.783 60.2892 127.329 60.0225 127.931 59.8447C128.541 59.6593 129.161 59.5628 129.814 59.5628ZM214.496 59.8741C214.736 59.8741 214.849 59.9857 214.794 60.2372L213.063 68.5846H214.28C214.537 68.5846 214.646 68.7179 214.577 68.9748L214.386 69.9115C214.362 70.1717 214.205 70.2931 213.936 70.2931H212.721L212.116 73.1908C212.041 73.4542 211.908 73.5767 211.658 73.5767H209.992C209.719 73.5767 209.614 73.4477 209.665 73.1908L210.276 70.2931H204.693C204.443 70.2931 204.338 70.1586 204.367 69.9115L204.412 69.7272C204.458 69.5852 204.494 69.4735 204.533 69.3553C204.579 69.2404 204.654 69.1407 204.773 69.0356L212.528 60.17C212.735 59.9651 212.963 59.8741 213.208 59.8741H214.496ZM181.388 59.9532L178.645 73.1604C178.594 73.4206 178.442 73.5572 178.201 73.5572H176.554C176.281 73.5572 176.173 73.4206 176.229 73.1604L178.406 62.6525L175.768 63.7366C175.504 63.8342 175.408 63.7485 175.465 63.5068L175.695 62.4401C175.736 62.1712 175.9 61.9837 176.155 61.8807L181.077 59.7386C181.338 59.6302 181.434 59.693 181.388 59.9532ZM137.66 63.6132C137.917 63.6132 138.024 63.7433 137.97 63.9992L136.604 70.6066C136.504 71.0814 136.49 71.4175 136.562 71.6126C136.635 71.8338 136.726 71.9205 136.864 71.9205H136.907C137.155 71.9205 137.257 72.0451 137.212 72.2999L137.043 73.1303C136.989 73.4013 136.837 73.5292 136.587 73.5292H136.465C134.604 73.5292 133.86 72.5861 134.256 70.7367L135.647 63.9992C135.698 63.7368 135.862 63.6132 136.111 63.6132H137.66ZM146.66 63.392C147.164 63.392 147.645 63.4711 148.062 63.637C148.503 63.8007 148.862 64.0424 149.135 64.3655C149.413 64.6766 149.607 65.0734 149.722 65.5384C149.827 66.0003 149.83 66.5293 149.714 67.1342L148.984 70.6217C148.884 71.0867 148.881 71.4293 148.95 71.6255C149.026 71.8391 149.135 71.928 149.256 71.928H149.279C149.558 71.928 149.643 72.0602 149.592 72.3117L149.413 73.1508C149.371 73.4142 149.213 73.5291 148.984 73.5291H148.862C146.992 73.5291 146.255 72.6098 146.635 70.7431L147.252 67.7749C147.322 67.4128 147.357 67.0496 147.374 66.7266C147.381 66.3786 147.357 66.0794 147.273 65.8376C147.192 65.5775 147.05 65.3747 146.84 65.2208C146.647 65.0734 146.39 64.9942 146.064 64.9942C144.717 64.9942 143.831 65.9797 143.414 67.9776L142.337 73.1508C142.289 73.4023 142.141 73.5291 141.894 73.5291H140.342C140.075 73.5291 139.965 73.4023 140.02 73.1302L141.434 66.3298C141.515 65.9461 141.515 65.6501 141.443 65.4723C141.355 65.3054 141.256 65.2208 141.116 65.2208H141.089C140.838 65.2208 140.721 65.0907 140.779 64.8371L140.957 64.0002C141.005 63.7432 141.155 63.6131 141.434 63.6131H141.542C141.933 63.6131 142.271 63.6554 142.531 63.7313C142.803 63.8007 143.021 63.8939 143.165 64.0207C143.329 64.1725 143.432 64.3199 143.495 64.514C143.559 64.7221 143.583 64.9487 143.583 65.1883H143.622C144.073 64.5682 144.526 64.1335 144.97 63.8343C145.435 63.5373 145.986 63.392 146.66 63.392ZM187.753 67.01C187.425 67.01 187.101 67.0761 186.802 67.1823C186.488 67.3027 186.198 67.4783 185.943 67.7059C185.681 67.9195 185.463 68.1797 185.27 68.5027C185.076 68.8084 184.94 69.1532 184.861 69.5543C184.708 70.3196 184.822 70.918 185.185 71.3506C185.568 71.7885 186.07 71.9999 186.727 71.9999C187.053 71.9999 187.351 71.9457 187.663 71.846C187.971 71.7343 188.259 71.5772 188.524 71.3712C188.767 71.1446 189.009 70.879 189.187 70.6058C189.373 70.2925 189.506 69.963 189.582 69.5846C189.661 69.1835 189.667 68.8269 189.597 68.5027C189.542 68.1797 189.44 67.9141 189.268 67.6983C189.09 67.4783 188.879 67.307 188.622 67.1823C188.352 67.0761 188.071 67.01 187.753 67.01ZM211.658 63.613H211.612L207.444 68.5846H210.627L211.658 63.613ZM166.208 64.9881C165.854 64.9881 165.55 65.0574 165.263 65.2211C164.972 65.3632 164.739 65.5659 164.516 65.8315C164.31 66.0797 164.125 66.3659 163.975 66.7172C163.816 67.05 163.687 67.412 163.59 67.7839L166.568 67.7958C166.872 67.7958 167.069 67.7687 167.187 67.6809C167.314 67.6148 167.403 67.4391 167.449 67.1464C167.508 66.8624 167.528 66.5903 167.508 66.3301C167.487 66.0797 167.403 65.8434 167.295 65.6504C167.187 65.4477 167.046 65.2938 166.872 65.1702C166.671 65.052 166.458 64.9881 166.208 64.9881ZM200.131 61.428C199.649 61.428 199.238 61.5158 198.897 61.6914C198.565 61.8638 198.278 62.0719 198.048 62.3744C197.806 62.6616 197.624 62.9814 197.485 63.3533C197.331 63.7305 197.213 64.0937 197.157 64.4807C197.065 64.846 197.007 65.2211 197.007 65.5594C196.993 65.8889 197.054 66.1881 197.157 66.418C197.267 66.6814 197.459 66.8798 197.7 67.0164C197.952 67.1768 198.298 67.2429 198.752 67.2429C199.178 67.2429 199.553 67.1519 199.843 66.9687C200.146 66.7833 200.411 66.5296 200.631 66.2217C200.844 65.916 201.018 65.5594 201.161 65.1431C201.303 64.7593 201.405 64.3138 201.508 63.8487C201.571 63.4346 201.583 63.0779 201.535 62.782C201.485 62.4676 201.382 62.2259 201.242 62.0231C201.096 61.8172 200.944 61.6665 200.734 61.5797C200.536 61.4768 200.335 61.428 200.131 61.428ZM187.509 61.9062C187.091 62.2476 186.854 62.652 186.763 63.1322C186.705 63.3978 186.702 63.6493 186.739 63.8943C186.786 64.1328 186.864 64.3204 186.992 64.5079C187.113 64.6944 187.283 64.8375 187.469 64.9372C187.66 65.0402 187.885 65.0966 188.147 65.0966C188.369 65.0966 188.609 65.051 188.847 64.9546C189.082 64.8375 189.298 64.7096 189.501 64.535C189.707 64.3713 189.869 64.173 190.011 63.9312C190.162 63.6862 190.25 63.413 190.316 63.1387C190.428 62.6097 190.329 62.1902 190.047 61.8758C189.77 61.5614 189.373 61.4097 188.879 61.4097C188.369 61.3923 187.908 61.5733 187.509 61.9062ZM138.533 59.4211C138.79 59.4211 138.893 59.5577 138.829 59.8136L138.509 61.3345C138.443 61.5784 138.298 61.6966 138.048 61.6966H136.511C136.233 61.6966 136.134 61.5784 136.176 61.3345L136.511 59.7984C136.562 59.5447 136.719 59.4211 136.989 59.4211H138.533Z" fill="#003B65"/>
<path fill-rule="evenodd" clip-rule="evenodd" d="M36.6483 27.8237C37.3768 27.8237 37.6543 28.1804 37.5004 28.8959L33.3148 48.1088C33.0427 49.4271 33.0069 50.3637 33.2237 50.9285C33.4091 51.5085 33.6953 51.7838 34.0573 51.7838H34.1636C34.8802 51.7838 35.1674 52.147 35.0102 52.8506L34.5419 55.1813C34.388 55.8979 33.9706 56.2567 33.2844 56.2567H32.9646C27.7481 56.2415 25.6862 53.6517 26.7681 48.4796L31.0306 28.8894C31.1661 28.1804 31.6063 27.8237 32.3358 27.8237H36.6483ZM146.935 26.9832C148.787 26.9832 150.361 27.2998 151.641 27.9589C152.931 28.5909 153.937 29.6186 154.688 31.0062H154.799L155.685 28.76C155.826 28.3676 155.977 28.0955 156.152 27.9383C156.334 27.7681 156.618 27.69 157.017 27.69H160.829C161.55 27.69 161.843 28.0619 161.683 28.7719L157.815 47.8939C157.553 49.043 157.538 49.8495 157.77 50.3428C157.991 50.8133 158.277 51.0583 158.647 51.0583H158.754C159.48 51.0583 159.768 51.4301 159.604 52.1283L159.124 54.4861C158.988 55.2016 158.549 55.5648 157.873 55.5648H157.538C155.282 55.5583 153.751 55.168 152.91 54.3799C152.078 53.6058 151.68 52.5359 151.723 51.1645H151.611C150.12 52.9478 148.494 54.2433 146.723 55.0455C144.952 55.839 143.021 56.2564 140.95 56.2564C139.397 56.2412 137.97 56.0027 136.683 55.5192C135.375 55.039 134.323 54.2108 133.516 53.0703C132.691 51.932 132.165 50.4208 131.917 48.5465C131.681 46.6645 131.841 44.3284 132.424 41.5076C132.996 38.7487 133.793 36.4428 134.792 34.5804C135.792 32.7256 136.943 31.2198 138.227 30.114C139.518 28.9866 140.902 28.18 142.377 27.69C143.864 27.2217 145.384 26.9832 146.935 26.9832ZM73.2307 26.929C75.5484 26.929 77.516 27.2152 79.1053 27.7833C80.6945 28.3611 81.7385 28.9411 82.2003 29.5546C82.2642 29.6641 82.3087 29.8213 82.3672 30.0479C82.4052 30.256 82.248 30.5552 81.8946 30.9477L80.378 32.6648C80.2143 32.9131 79.9964 33.0183 79.734 32.964C79.4706 32.9066 79.2017 32.8502 78.9535 32.77C78.032 32.4047 77.0835 32.099 76.1284 31.8334C75.1733 31.5645 74.1088 31.429 72.9423 31.429C71.3205 31.429 70.0717 31.7488 69.2467 32.3873C68.3914 33.0367 67.8472 33.8768 67.6141 34.9197C67.4992 35.517 67.5664 36.0591 67.7962 36.5155C68.0553 36.9838 68.5247 37.322 69.2348 37.5421L75.2102 39.3655C77.4217 40.0485 78.8332 41.0458 79.4706 42.3727C80.0874 43.6898 80.1872 45.3951 79.7611 47.4646C79.4532 48.9302 78.8722 50.1997 78.032 51.261C77.1778 52.3375 76.1642 53.2459 74.9706 53.9777C73.7705 54.7062 72.4653 55.259 71.0322 55.6103C69.5947 55.9637 68.1312 56.1382 66.6504 56.1382C65.4958 56.1382 64.3901 56.0667 63.3678 55.9182C62.3401 55.7794 61.4154 55.5854 60.572 55.3501C59.7264 55.117 59.0467 54.8493 58.5057 54.5251C57.9648 54.2042 57.593 53.866 57.3989 53.5061C57.1452 53.0378 57.2027 52.5749 57.5962 52.1066L59.1247 50.4024C59.309 50.2268 59.5421 50.1271 59.8261 50.1542C60.095 50.1726 60.3226 50.2268 60.5427 50.2842C61.5336 50.6507 62.5645 50.9553 63.6432 51.2274C64.7131 51.5092 65.9165 51.6328 67.2672 51.6393C68.3849 51.6393 69.328 51.5298 70.0717 51.3217C70.8273 51.1071 71.4474 50.8317 71.9059 50.487C72.3623 50.1422 72.6951 49.7715 72.9271 49.3205C73.1483 48.9118 73.3174 48.4749 73.4117 48.0446C73.5776 47.2326 73.39 46.5952 72.861 46.1507C72.3201 45.6943 71.3292 45.226 69.869 44.7175L65.4416 43.3245C63.5619 42.7055 62.3108 41.7168 61.694 40.3173C61.0674 38.9178 60.9557 37.3339 61.307 35.5452C61.5791 34.3267 62.0203 33.2058 62.6729 32.1456C63.3169 31.0908 64.1483 30.1704 65.1544 29.391C66.1669 28.5974 67.3485 27.9925 68.6993 27.5697C70.0587 27.1426 71.558 26.929 73.2307 26.929ZM59.0614 27.1817C59.4181 27.1817 59.6609 27.2153 59.7834 27.2825C59.9049 27.3671 59.9287 27.5937 59.8257 27.9926L58.965 32.0091C58.8739 32.3658 58.7536 32.6075 58.5964 32.7311C58.4359 32.8558 58.2549 32.9338 58.037 32.9468C57.8202 32.9642 57.586 32.9468 57.3356 32.8948C57.0873 32.8406 56.8402 32.8102 56.5919 32.8102C53.1467 32.8102 51.0458 34.535 50.3238 38.0051L46.6944 54.5827C46.5372 55.3177 46.1176 55.6646 45.4282 55.6646L41.0821 55.6559C40.3179 55.6559 40.0176 55.3047 40.1661 54.5827L44.343 35.27C44.5999 34.1241 44.6054 33.3056 44.4005 32.8276C44.1739 32.3484 43.8747 32.1056 43.5115 32.1056H43.3999C42.6811 32.0991 42.3873 31.7489 42.5478 31.0323L43.0194 28.6604C43.1798 27.959 43.6113 27.5937 44.343 27.5937H44.6628C46.9123 27.6002 48.4809 27.869 49.3568 28.4154C50.2154 28.9412 50.6599 29.7152 50.6718 30.719H50.7835C51.9499 29.4615 53.1467 28.5639 54.3858 28.0045C55.613 27.4636 57.1697 27.1817 59.0614 27.1817ZM208.594 17.0181L203.874 39.9397L215.308 28.5906C215.895 28.0052 216.55 27.7233 217.275 27.7233L221.788 27.7385C222.622 27.7385 222.692 28.0225 222 28.5906L208.587 41.1821L217.242 54.7449C217.614 55.3173 217.414 55.6035 216.65 55.6035H211.319C210.56 55.6035 210.025 55.3173 209.73 54.7449L203.11 43.4218L200.828 54.5248C200.673 55.2414 200.248 55.5861 199.559 55.5861H195.271C194.499 55.5861 194.197 55.2327 194.361 54.5248L201.354 20.6845L208.594 17.0181ZM182.804 27.0585C184.253 27.0585 185.577 27.2883 186.784 27.7631C187.984 28.2184 188.998 28.9025 189.779 29.8001C190.571 30.6858 191.114 31.7937 191.426 33.0967C191.723 34.4052 191.707 35.9012 191.39 37.5696L189.344 47.3805C189.087 48.7095 189.057 49.6592 189.247 50.2272C189.449 50.7985 189.725 51.0804 190.1 51.0804H190.205C190.915 51.0804 191.217 51.4457 191.058 52.1677L190.589 54.5245C190.431 55.2324 190.012 55.5804 189.314 55.5804H188.998C183.731 55.5804 181.656 52.9688 182.74 47.7523L184.474 39.3854C184.686 38.3491 184.798 37.368 184.822 36.4151C184.855 35.473 184.747 34.6318 184.517 33.9282C184.293 33.2051 183.91 32.6403 183.34 32.2111C182.804 31.7796 182.057 31.5649 181.105 31.5649C177.29 31.5595 174.827 34.351 173.709 39.9188L170.669 54.4974C170.515 55.2085 170.091 55.5706 169.396 55.5706L165.053 55.5652C164.288 55.5652 163.987 55.202 164.134 54.492L168.066 35.3549C168.329 34.2209 168.341 33.4024 168.108 32.9124C167.885 32.4322 167.601 32.1905 167.232 32.1905H167.124C166.404 32.1905 166.12 31.8392 166.259 31.1172L166.746 28.7594C166.903 28.0493 167.326 27.6905 168.066 27.6905H168.388C169.52 27.6905 170.451 27.8021 171.204 27.9832C171.947 28.1913 172.545 28.4732 173.002 28.8504C173.443 29.2223 173.752 29.6971 173.915 30.25C174.075 30.7855 174.156 31.4099 174.141 32.094H174.266C175.523 30.3736 176.801 29.116 178.061 28.2976C179.334 27.4628 180.918 27.0585 182.804 27.0585ZM109.467 16.9212L117.519 16.9429C121.765 16.9429 124.95 17.8134 127.048 19.5663C129.152 21.316 129.859 23.8365 129.182 27.131C128.774 29.0596 127.988 30.6857 126.833 32.0093C125.685 33.3232 124.192 34.3791 122.361 35.1607L122.342 35.2702C124.906 35.6691 126.691 36.7142 127.698 38.4075C128.723 40.1149 128.971 42.1519 128.459 44.5607C128.143 46.1174 127.538 47.5701 126.625 48.8915C125.736 50.2119 124.63 51.373 123.307 52.3671C121.997 53.3698 120.523 54.159 118.888 54.7C117.262 55.2648 115.548 55.525 113.79 55.525L101.536 55.5196C100.763 55.5196 100.467 55.1575 100.633 54.4463L108.153 17.9977C108.307 17.2876 108.745 16.9212 109.467 16.9212ZM98.6468 19.1158L96.934 27.6388H100.467C101.192 27.6453 101.491 27.9987 101.322 28.7153L100.866 30.8032C100.721 31.5252 100.268 31.8851 99.5444 31.8851H96.0147L92.8568 47.3168C92.5869 48.6437 92.6758 49.5804 93.1105 50.1549C93.5495 50.7295 94.0688 51.0135 94.6943 51.0135L95.5984 51.0222C96.3291 51.0222 96.6229 51.3723 96.4624 52.0835L95.9789 54.4402C95.8337 55.1568 95.4076 55.5189 94.7214 55.5189H92.1673C89.7043 55.5189 87.9698 54.8305 86.9692 53.4429C85.9665 52.0683 85.7637 49.9793 86.3383 47.1477L89.4778 31.8731H86.6483C85.9242 31.8731 85.6369 31.5187 85.7973 30.7847L86.2505 28.699C86.3914 27.9922 86.8456 27.6388 87.5741 27.6388H90.3992L91.3337 22.8212L98.6468 19.1158ZM8.8952 16.8491L28.0984 16.8708C28.8291 16.8708 29.1077 17.2145 28.9679 17.9429L28.4063 20.6152C28.2545 21.3318 27.8111 21.6884 27.0924 21.6884H13.6456L11.2064 33.533H21.9355C22.6553 33.533 22.9361 33.9048 22.7908 34.6105L22.2379 37.2893C22.0873 38.0048 21.6363 38.3614 20.923 38.3614L10.1972 38.3495L6.894 54.3797C6.74556 55.0644 6.35217 55.4346 5.70898 55.4465L0.955464 55.4464C0.196614 55.4464 -0.117766 55.0897 0.0394239 54.3677L7.57697 17.9321C7.72549 17.209 8.17212 16.8491 8.8952 16.8491ZM147.206 31.4745C146.231 31.4745 145.321 31.6252 144.478 31.9092C143.64 32.19 142.895 32.7093 142.238 33.466C141.57 34.2216 140.959 35.2308 140.409 36.5144C139.85 37.8023 139.376 39.4641 138.957 41.5076C138.533 43.5782 138.306 45.2704 138.3 46.5941C138.291 47.9156 138.479 48.9639 138.841 49.7325C139.202 50.4989 139.745 51.0225 140.452 51.3217C141.166 51.5992 141.996 51.7358 142.985 51.7358C145.412 51.751 147.433 50.9564 149.072 49.366C150.679 47.7855 151.87 45.162 152.61 41.5076C153.342 37.9389 153.222 35.375 152.281 33.8194C151.324 32.2627 149.622 31.4745 147.206 31.4745ZM115.527 38.1083H110.852L108.189 51.0217H112.864C114.352 51.0217 115.612 50.8385 116.658 50.4602C117.698 50.097 118.555 49.6135 119.233 49.0216C119.897 48.4297 120.414 47.7522 120.8 46.9782C121.167 46.2085 121.439 45.4225 121.599 44.6051C121.762 43.8203 121.795 43.0311 121.716 42.2635C121.644 41.5079 121.378 40.7979 120.925 40.1724C120.48 39.5555 119.821 39.0601 118.954 38.6763C118.09 38.298 116.947 38.1083 115.527 38.1083ZM116.533 21.4223H114.303L111.794 33.5964L115.058 33.6051C115.859 33.6051 116.64 33.4663 117.422 33.1823C118.205 32.8939 118.915 32.4711 119.574 31.9096C120.22 31.3708 120.78 30.6943 121.272 29.9051C121.762 29.117 122.115 28.2378 122.318 27.2372C122.68 25.4778 122.418 24.0782 121.52 23.0234C120.629 21.9686 118.954 21.4396 116.533 21.4223ZM38.8695 17.2031C39.5829 17.2031 39.8756 17.5532 39.7162 18.2633L38.8034 22.5215C38.643 23.2262 38.2321 23.5828 37.5491 23.5828L33.2324 23.5763C32.4865 23.5763 32.1754 23.2262 32.3239 22.5161L33.2486 18.2514C33.4026 17.5532 33.834 17.2031 34.5571 17.2031H38.8695Z" fill="#003B65"/>
</svg>
