<svg id="visual" viewBox="0 0 900 600" width="900" height="600" xmlns="http://www.w3.org/2000/svg" xmlns:xlink="http://www.w3.org/1999/xlink" version="1.1"><rect x="0" y="0" width="900" height="600" fill="#E30000"></rect><defs><linearGradient id="grad1_0" x1="33.3%" y1="0%" x2="100%" y2="100%"><stop offset="20%" stop-color="#e30000" stop-opacity="1"></stop><stop offset="80%" stop-color="#e30000" stop-opacity="1"></stop></linearGradient></defs><defs><linearGradient id="grad2_0" x1="0%" y1="0%" x2="66.7%" y2="100%"><stop offset="20%" stop-color="#e30000" stop-opacity="1"></stop><stop offset="80%" stop-color="#e30000" stop-opacity="1"></stop></linearGradient></defs><g transform="translate(900, 0)"><path d="M0 189.3C-32.5 183.6 -65 177.9 -94 162.8C-123 147.8 -148.6 123.3 -163.9 94.6C-179.2 66 -184.3 33 -189.3 0L0 0Z" fill="#EE5331"></path></g><g transform="translate(0, 600)"><path d="M0 -189.3C31.1 -181.3 62.3 -173.3 91.5 -158.5C120.7 -143.7 148 -122.2 163.9 -94.6C179.9 -67.1 184.6 -33.6 189.3 0L0 0Z" fill="#EE5331"></path></g></svg>