<svg id="visual" viewBox="0 0 900 600" width="900" height="600" xmlns="http://www.w3.org/2000/svg" xmlns:xlink="http://www.w3.org/1999/xlink" version="1.1"><rect x="0" y="0" width="900" height="600" fill="#7A7C87"></rect><defs><linearGradient id="grad1_0" x1="33.3%" y1="0%" x2="100%" y2="100%"><stop offset="20%" stop-color="#7a7c87" stop-opacity="1"></stop><stop offset="80%" stop-color="#7a7c87" stop-opacity="1"></stop></linearGradient></defs><defs><linearGradient id="grad2_0" x1="0%" y1="0%" x2="66.7%" y2="100%"><stop offset="20%" stop-color="#7a7c87" stop-opacity="1"></stop><stop offset="80%" stop-color="#7a7c87" stop-opacity="1"></stop></linearGradient></defs><g transform="translate(900, 0)"><path d="M0 205C-21.4 204.3 -42.7 203.6 -64.9 199.7C-87.1 195.8 -110 188.8 -127.2 175C-144.3 161.3 -155.6 140.8 -167.5 121.7C-179.3 102.5 -191.8 84.6 -198.8 64.6C-205.8 44.5 -207.4 22.3 -209 0L0 0Z" fill="#878995"></path></g><g transform="translate(0, 600)"><path d="M0 -215C21.7 -210.1 43.3 -205.2 64.6 -198.8C85.8 -192.3 106.7 -184.3 125.2 -172.3C143.7 -160.3 159.9 -144.4 173.9 -126.4C188 -108.4 199.8 -88.3 205.7 -66.9C211.7 -45.4 211.9 -22.7 212 0L0 0Z" fill="#878995"></path></g></svg>