<svg width="122" height="122" viewBox="0 0 122 122" fill="none" xmlns="http://www.w3.org/2000/svg">
<g opacity="0.03">
<path d="M5.97131 39.6734C5.7842 39.6734 5.59416 39.6383 5.40997 39.5593L0.901664 37.6853C0.156127 37.3753 -0.197637 36.5187 0.112272 35.7761C0.422182 35.0276 1.28174 34.6739 2.02143 34.9867L6.53266 36.8637C7.2782 37.1736 7.63196 38.0273 7.31913 38.7729C7.08816 39.3342 6.54435 39.6734 5.97131 39.6734Z" fill="#13132A"/>
</g>
<path d="M61.0035 103.672C84.5713 103.672 103.678 84.5632 103.678 60.9955C103.678 37.4278 84.5713 18.3245 61.0035 18.3245C37.4358 18.3245 18.3296 37.4278 18.3296 60.9955C18.3296 84.5632 37.4358 103.672 61.0035 103.672Z" fill="#13132A"/>
<path d="M56.5976 80.0909L41.9792 63.3879C39.8537 60.9584 40.1022 57.2628 42.5318 55.1344C44.9643 53.006 48.6569 53.2545 50.7854 55.687L56.6327 62.3734L74.1572 42.51C76.2944 40.0892 79.9929 39.8611 82.4137 41.9954C84.8345 44.1326 85.0654 47.8281 82.9282 50.2489L56.5976 80.0909Z" fill="#00DD9D"/>
<path d="M85.662 121.998C85.0919 121.998 84.5452 121.659 84.3113 121.098L82.4343 116.587C82.1273 115.841 82.4781 114.987 83.2237 114.675C83.9751 114.376 84.8259 114.718 85.1358 115.464L87.0128 119.975C87.3197 120.721 86.9689 121.577 86.2234 121.89C86.0392 121.963 85.8491 121.998 85.662 121.998Z" fill="#13132A"/>
<g opacity="0.66667">
<path d="M100.921 102.383C100.546 102.383 100.172 102.24 99.8857 101.956L96.8626 98.9302C96.2925 98.3601 96.2925 97.4362 96.8626 96.8631C97.4357 96.293 98.3596 96.293 98.9297 96.8631L101.956 99.8862C102.526 100.459 102.526 101.383 101.956 101.956C101.669 102.24 101.295 102.383 100.921 102.383Z" fill="#13132A"/>
</g>
<path d="M120.535 87.1251C120.348 87.1251 120.158 87.0871 119.974 87.014L115.462 85.137C114.717 84.8271 114.366 83.9734 114.673 83.2249C114.986 82.4794 115.84 82.1373 116.588 82.4355L121.099 84.3125C121.845 84.6253 122.196 85.479 121.889 86.2246C121.655 86.7859 121.105 87.1251 120.535 87.1251Z" fill="#13132A"/>
<g opacity="0.66667">
<path d="M117.454 62.4605H113.185C112.379 62.4605 111.724 61.8056 111.724 60.9987C111.724 60.1918 112.379 59.5369 113.185 59.5369H117.454C118.261 59.5369 118.916 60.1918 118.916 60.9987C118.916 61.8056 118.261 62.4605 117.454 62.4605Z" fill="#13132A"/>
</g>
<g opacity="0.5">
<path d="M116.027 39.6764C115.457 39.6764 114.907 39.3372 114.673 38.7759C114.366 38.0303 114.717 37.1737 115.462 36.8609L119.974 34.9839C120.722 34.6827 121.576 35.0306 121.889 35.7791C122.196 36.5217 121.845 37.3783 121.099 37.6883L116.588 39.5653C116.404 39.6413 116.214 39.6764 116.027 39.6764Z" fill="#13132A"/>
</g>
<path d="M97.8976 25.5661C97.5234 25.5661 97.1492 25.42 96.8626 25.1364C96.2925 24.5633 96.2925 23.6424 96.8626 23.0693L99.8886 20.0462C100.459 19.4732 101.383 19.4732 101.956 20.0462C102.526 20.6164 102.526 21.5432 101.956 22.1133L98.9326 25.1364C98.6461 25.42 98.2719 25.5661 97.8976 25.5661Z" fill="#13132A"/>
<path d="M83.788 7.43396C83.6008 7.43396 83.4108 7.39887 83.2266 7.31993C82.4811 7.01003 82.1302 6.15631 82.4372 5.41078L84.3142 0.902468C84.6241 0.151084 85.4749 -0.196833 86.2263 0.113076C86.9718 0.422985 87.3227 1.27962 87.0157 2.02224L85.1387 6.53347C84.9048 7.09481 84.3581 7.43396 83.788 7.43396Z" fill="#13132A"/>
<path d="M61.0009 10.2728C60.194 10.2728 59.5391 9.61791 59.5391 8.81097V4.5424C59.5391 3.73547 60.194 3.08057 61.0009 3.08057C61.8078 3.08057 62.4627 3.73547 62.4627 4.5424V8.81097C62.4627 9.61791 61.8078 10.2728 61.0009 10.2728Z" fill="#13132A"/>
<g opacity="0.66667">
<path d="M38.2111 7.43383C37.6381 7.43383 37.0943 7.09469 36.8633 6.53334L34.9863 2.02211C34.6764 1.2795 35.0331 0.422864 35.7787 0.112954C36.5213 -0.194031 37.3779 0.153886 37.6878 0.899422L39.559 5.41065C39.8718 6.15619 39.518 7.0099 38.7725 7.31981C38.5883 7.39875 38.3983 7.43383 38.2111 7.43383Z" fill="#13132A"/>
</g>
<path d="M24.1011 25.5661C23.7269 25.5661 23.3527 25.42 23.0661 25.1364L20.046 22.1133C19.473 21.5432 19.473 20.6164 20.046 20.0462C20.6161 19.4732 21.5429 19.4732 22.113 20.0462L25.1361 23.0693C25.7062 23.6424 25.7062 24.5633 25.1361 25.1364C24.8496 25.42 24.4754 25.5661 24.1011 25.5661Z" fill="#13132A"/>
<g opacity="0.515">
<path d="M5.97131 39.6734C5.7842 39.6734 5.59416 39.6383 5.40997 39.5593L0.901664 37.6853C0.156127 37.3753 -0.197637 36.5187 0.112272 35.7761C0.422182 35.0276 1.28174 34.6739 2.02143 34.9867L6.53266 36.8637C7.2782 37.1736 7.63196 38.0273 7.31913 38.7729C7.08816 39.3342 6.54435 39.6734 5.97131 39.6734Z" fill="#13132A"/>
</g>
<path d="M8.81585 62.4605H4.54729C3.74035 62.4605 3.08545 61.8056 3.08545 60.9987C3.08545 60.1918 3.74035 59.5369 4.54729 59.5369H8.81585C9.62278 59.5369 10.2777 60.1918 10.2777 60.9987C10.2777 61.8056 9.62278 62.4605 8.81585 62.4605Z" fill="#13132A"/>
<g opacity="0.5">
<path d="M1.46322 87.1242C0.890184 87.1242 0.346381 86.7851 0.11541 86.2238C-0.197423 85.4811 0.156342 84.6216 0.901879 84.3087L5.41311 82.4317C6.1528 82.1306 7.01236 82.4814 7.32227 83.2241C7.63218 83.9696 7.27841 84.8262 6.53287 85.1361L2.02457 87.0131C1.84038 87.0862 1.65034 87.1242 1.46322 87.1242Z" fill="#13132A"/>
</g>
<path d="M21.0807 102.383C20.7065 102.383 20.3323 102.24 20.0458 101.956C19.4756 101.383 19.4756 100.459 20.0458 99.8862L23.0688 96.8631C23.6389 96.293 24.5658 96.293 25.1359 96.8631C25.7089 97.4362 25.7089 98.3601 25.1359 98.9302L22.1157 101.956C21.8292 102.24 21.455 102.383 21.0807 102.383Z" fill="#13132A"/>
<g opacity="0.66667">
<path d="M35.3337 118.098C34.9594 118.098 34.5852 117.955 34.2987 117.671C33.7286 117.098 33.7286 116.174 34.2987 115.601L37.3218 112.578C37.8919 112.008 38.8187 112.008 39.3888 112.578C39.9618 113.151 39.9618 114.075 39.3888 114.645L36.3686 117.671C36.0821 117.955 35.7079 118.098 35.3337 118.098Z" fill="#13132A"/>
</g>
<path d="M61.0035 103.672C84.5713 103.672 103.678 84.5632 103.678 60.9955C103.678 37.4278 84.5713 18.3245 61.0035 18.3245C37.4358 18.3245 18.3296 37.4278 18.3296 60.9955C18.3296 84.5632 37.4358 103.672 61.0035 103.672Z" fill="#13132A"/>
<path d="M56.5976 80.0909L41.9792 63.3879C39.8537 60.9584 40.1022 57.2628 42.5318 55.1344C44.9643 53.006 48.6569 53.2545 50.7854 55.687L56.6327 62.3734L74.1572 42.51C76.2944 40.0892 79.9929 39.8611 82.4137 41.9954C84.8345 44.1326 85.0654 47.8281 82.9282 50.2489L56.5976 80.0909Z" fill="#00DD9D"/>
</svg>
