<svg width="262" height="147" viewBox="0 0 262 147" fill="none" xmlns="http://www.w3.org/2000/svg">
<g filter="url(#filter0_d_401_2216)">
<rect x="10" y="8" width="242" height="127" rx="5" fill="#7A7C87"/>
<rect x="10.5" y="8.5" width="241" height="126" rx="4.5" stroke="#7A7C87" stroke-opacity="0.5"/>
</g>
<mask id="mask0_401_2216" style="mask-type:alpha" maskUnits="userSpaceOnUse" x="10" y="8" width="242" height="127">
<rect x="10" y="8" width="242" height="127" rx="5" fill="#7A7C87"/>
</mask>
<g mask="url(#mask0_401_2216)">
<circle cx="225" cy="14" r="62" fill="#878995"/>
<circle cx="-34.5" cy="169.5" r="96.5" fill="#878995"/>
</g>
<path d="M41.116 39L40.054 36.084H34.87L33.808 39H31.18L36.076 26.238H38.956L43.816 39H41.116ZM37.462 28.992L35.698 33.816H39.226L37.462 28.992ZM47.6622 39H45.2682V25.968H47.6622V39ZM52.6193 39H50.2253V25.968H52.6193V39ZM59.8096 26.238H64.3996C65.6116 26.238 66.5596 26.556 67.2436 27.192C67.9396 27.828 68.2876 28.656 68.2876 29.676C68.2876 30.324 68.1136 30.9 67.7656 31.404C67.4176 31.896 66.9736 32.232 66.4336 32.412C67.0816 32.568 67.6156 32.922 68.0356 33.474C68.4676 34.014 68.6836 34.668 68.6836 35.436C68.6836 36.48 68.3236 37.338 67.6036 38.01C66.8836 38.67 65.9296 39 64.7416 39H59.8096V26.238ZM62.2576 31.512H64.0216C64.5856 31.512 65.0296 31.368 65.3536 31.08C65.6776 30.792 65.8396 30.402 65.8396 29.91C65.8396 29.418 65.6776 29.034 65.3536 28.758C65.0416 28.47 64.5916 28.326 64.0036 28.326H62.2576V31.512ZM62.2576 36.93H64.2736C64.8736 36.93 65.3416 36.786 65.6776 36.498C66.0256 36.198 66.1996 35.79 66.1996 35.274C66.1996 34.758 66.0316 34.344 65.6956 34.032C65.3716 33.72 64.9096 33.564 64.3096 33.564H62.2576V36.93ZM76.2713 39C76.2233 38.76 76.1993 38.442 76.1993 38.046C75.9713 38.442 75.6293 38.742 75.1733 38.946C74.7293 39.138 74.2553 39.234 73.7513 39.234C72.7073 39.234 71.8853 38.904 71.2853 38.244C70.6853 37.572 70.3853 36.738 70.3853 35.742V30.144H72.7793V35.256C72.7793 35.784 72.9173 36.216 73.1933 36.552C73.4693 36.876 73.8713 37.038 74.3993 37.038C74.9153 37.038 75.3233 36.882 75.6233 36.57C75.9233 36.246 76.0733 35.82 76.0733 35.292V30.144H78.4673V37.398C78.4673 37.962 78.4973 38.496 78.5573 39H76.2713ZM80.2661 36.534L82.3181 36.084C82.3421 36.468 82.4921 36.792 82.7681 37.056C83.0561 37.308 83.4461 37.434 83.9381 37.434C84.3101 37.434 84.5981 37.35 84.8021 37.182C85.0061 37.014 85.1081 36.804 85.1081 36.552C85.1081 36.108 84.7901 35.82 84.1541 35.688L82.9841 35.418C82.1561 35.238 81.5321 34.914 81.1121 34.446C80.7041 33.978 80.5001 33.42 80.5001 32.772C80.5001 31.968 80.8121 31.284 81.4361 30.72C82.0721 30.156 82.8641 29.874 83.8121 29.874C84.4121 29.874 84.9401 29.964 85.3961 30.144C85.8521 30.312 86.2061 30.534 86.4581 30.81C86.7101 31.074 86.9021 31.344 87.0341 31.62C87.1661 31.896 87.2501 32.166 87.2861 32.43L85.2881 32.88C85.2401 32.568 85.0961 32.292 84.8561 32.052C84.6281 31.812 84.2861 31.692 83.8301 31.692C83.5181 31.692 83.2481 31.776 83.0201 31.944C82.8041 32.112 82.6961 32.322 82.6961 32.574C82.6961 33.006 82.9661 33.27 83.5061 33.366L84.7661 33.636C85.6181 33.816 86.2661 34.146 86.7101 34.626C87.1661 35.106 87.3941 35.682 87.3941 36.354C87.3941 37.146 87.0941 37.83 86.4941 38.406C85.8941 38.982 85.0481 39.27 83.9561 39.27C83.3321 39.27 82.7741 39.18 82.2821 39C81.7901 38.808 81.4061 38.568 81.1301 38.28C80.8661 37.98 80.6621 37.686 80.5181 37.398C80.3861 37.098 80.3021 36.81 80.2661 36.534ZM91.713 39H89.319V30.144H91.713V39ZM89.031 27.246C89.031 26.838 89.175 26.49 89.463 26.202C89.751 25.902 90.099 25.752 90.507 25.752C90.915 25.752 91.263 25.896 91.551 26.184C91.839 26.472 91.983 26.826 91.983 27.246C91.983 27.642 91.839 27.984 91.551 28.272C91.263 28.56 90.915 28.704 90.507 28.704C90.099 28.704 89.751 28.56 89.463 28.272C89.175 27.984 89.031 27.642 89.031 27.246ZM96.67 33.906V39H94.276V30.144H96.598V31.242C96.85 30.81 97.21 30.48 97.678 30.252C98.146 30.024 98.638 29.91 99.154 29.91C100.198 29.91 100.99 30.24 101.53 30.9C102.082 31.548 102.358 32.388 102.358 33.42V39H99.964V33.834C99.964 33.306 99.826 32.88 99.55 32.556C99.286 32.232 98.878 32.07 98.326 32.07C97.822 32.07 97.42 32.244 97.12 32.592C96.82 32.94 96.67 33.378 96.67 33.906ZM106.534 33.564H110.494C110.47 33.072 110.29 32.658 109.954 32.322C109.63 31.986 109.15 31.818 108.514 31.818C107.938 31.818 107.47 31.998 107.11 32.358C106.75 32.718 106.558 33.12 106.534 33.564ZM110.728 35.868L112.726 36.462C112.486 37.278 112.012 37.95 111.304 38.478C110.608 39.006 109.738 39.27 108.694 39.27C107.422 39.27 106.342 38.844 105.454 37.992C104.566 37.128 104.122 35.976 104.122 34.536C104.122 33.168 104.554 32.052 105.418 31.188C106.282 30.312 107.302 29.874 108.478 29.874C109.846 29.874 110.914 30.282 111.682 31.098C112.462 31.914 112.852 33.036 112.852 34.464C112.852 34.56 112.846 34.668 112.834 34.788C112.834 34.908 112.834 35.004 112.834 35.076L112.816 35.202H106.48C106.504 35.778 106.732 36.258 107.164 36.642C107.596 37.026 108.112 37.218 108.712 37.218C109.732 37.218 110.404 36.768 110.728 35.868ZM113.981 36.534L116.033 36.084C116.057 36.468 116.207 36.792 116.483 37.056C116.771 37.308 117.161 37.434 117.653 37.434C118.025 37.434 118.313 37.35 118.517 37.182C118.721 37.014 118.823 36.804 118.823 36.552C118.823 36.108 118.505 35.82 117.869 35.688L116.699 35.418C115.871 35.238 115.247 34.914 114.827 34.446C114.419 33.978 114.215 33.42 114.215 32.772C114.215 31.968 114.527 31.284 115.151 30.72C115.787 30.156 116.579 29.874 117.527 29.874C118.127 29.874 118.655 29.964 119.111 30.144C119.567 30.312 119.921 30.534 120.173 30.81C120.425 31.074 120.617 31.344 120.749 31.62C120.881 31.896 120.965 32.166 121.001 32.43L119.003 32.88C118.955 32.568 118.811 32.292 118.571 32.052C118.343 31.812 118.001 31.692 117.545 31.692C117.233 31.692 116.963 31.776 116.735 31.944C116.519 32.112 116.411 32.322 116.411 32.574C116.411 33.006 116.681 33.27 117.221 33.366L118.481 33.636C119.333 33.816 119.981 34.146 120.425 34.626C120.881 35.106 121.109 35.682 121.109 36.354C121.109 37.146 120.809 37.83 120.209 38.406C119.609 38.982 118.763 39.27 117.671 39.27C117.047 39.27 116.489 39.18 115.997 39C115.505 38.808 115.121 38.568 114.845 38.28C114.581 37.98 114.377 37.686 114.233 37.398C114.101 37.098 114.017 36.81 113.981 36.534ZM122.278 36.534L124.33 36.084C124.354 36.468 124.504 36.792 124.78 37.056C125.068 37.308 125.458 37.434 125.95 37.434C126.322 37.434 126.61 37.35 126.814 37.182C127.018 37.014 127.12 36.804 127.12 36.552C127.12 36.108 126.802 35.82 126.166 35.688L124.996 35.418C124.168 35.238 123.544 34.914 123.124 34.446C122.716 33.978 122.512 33.42 122.512 32.772C122.512 31.968 122.824 31.284 123.448 30.72C124.084 30.156 124.876 29.874 125.824 29.874C126.424 29.874 126.952 29.964 127.408 30.144C127.864 30.312 128.218 30.534 128.47 30.81C128.722 31.074 128.914 31.344 129.046 31.62C129.178 31.896 129.262 32.166 129.298 32.43L127.3 32.88C127.252 32.568 127.108 32.292 126.868 32.052C126.64 31.812 126.298 31.692 125.842 31.692C125.53 31.692 125.26 31.776 125.032 31.944C124.816 32.112 124.708 32.322 124.708 32.574C124.708 33.006 124.978 33.27 125.518 33.366L126.778 33.636C127.63 33.816 128.278 34.146 128.722 34.626C129.178 35.106 129.406 35.682 129.406 36.354C129.406 37.146 129.106 37.83 128.506 38.406C127.906 38.982 127.06 39.27 125.968 39.27C125.344 39.27 124.786 39.18 124.294 39C123.802 38.808 123.418 38.568 123.142 38.28C122.878 37.98 122.674 37.686 122.53 37.398C122.398 37.098 122.314 36.81 122.278 36.534Z" fill="#F3F5F6"/>
<path d="M127.38 86.12L119.52 85.88C119.32 85 119.22 84.1 119.22 83.18C119.22 79.58 120.5 76.52 123.06 74C125.62 71.44 129.08 70.16 133.44 70.16C137.68 70.16 141.08 71.38 143.64 73.82C146.2 76.22 147.48 79.18 147.48 82.7C147.48 87.66 144.96 91.68 139.92 94.76L132.42 99.32C130.66 100.44 129.54 101.62 129.06 102.86H147.72V110H118.92C118.96 106.36 119.66 103.18 121.02 100.46C122.42 97.74 124.78 95.38 128.1 93.38L134.52 89.54C137.6 87.7 139.14 85.46 139.14 82.82C139.14 81.34 138.62 80.08 137.58 79.04C136.58 78 135.14 77.48 133.26 77.48C131.26 77.48 129.72 78.08 128.64 79.28C127.6 80.48 127.08 82.04 127.08 83.96C127.08 84.68 127.18 85.4 127.38 86.12ZM162.418 80.66C161.018 82.86 160.318 86.16 160.318 90.56C160.318 94.96 161.018 98.26 162.418 100.46C163.738 102.58 165.698 103.64 168.298 103.64C170.858 103.64 172.798 102.58 174.118 100.46C175.558 98.3 176.278 95 176.278 90.56C176.278 86.12 175.558 82.82 174.118 80.66C172.798 78.54 170.858 77.48 168.298 77.48C165.698 77.48 163.738 78.54 162.418 80.66ZM155.458 104.42C153.178 100.94 152.038 96.32 152.038 90.56C152.038 84.8 153.178 80.18 155.458 76.7C158.378 72.34 162.658 70.16 168.298 70.16C173.938 70.16 178.198 72.34 181.078 76.7C183.398 80.22 184.558 84.84 184.558 90.56C184.558 96.28 183.398 100.9 181.078 104.42C178.198 108.78 173.938 110.96 168.298 110.96C162.658 110.96 158.378 108.78 155.458 104.42ZM199.742 80.66C198.342 82.86 197.642 86.16 197.642 90.56C197.642 94.96 198.342 98.26 199.742 100.46C201.062 102.58 203.022 103.64 205.622 103.64C208.182 103.64 210.122 102.58 211.442 100.46C212.882 98.3 213.602 95 213.602 90.56C213.602 86.12 212.882 82.82 211.442 80.66C210.122 78.54 208.182 77.48 205.622 77.48C203.022 77.48 201.062 78.54 199.742 80.66ZM192.782 104.42C190.502 100.94 189.362 96.32 189.362 90.56C189.362 84.8 190.502 80.18 192.782 76.7C195.702 72.34 199.982 70.16 205.622 70.16C211.262 70.16 215.522 72.34 218.402 76.7C220.722 80.22 221.882 84.84 221.882 90.56C221.882 96.28 220.722 100.9 218.402 104.42C215.522 108.78 211.262 110.96 205.622 110.96C199.982 110.96 195.702 108.78 192.782 104.42Z" fill="#F3F5F6"/>
<defs>
<filter id="filter0_d_401_2216" x="0" y="0" width="262" height="147" filterUnits="userSpaceOnUse" color-interpolation-filters="sRGB">
<feFlood flood-opacity="0" result="BackgroundImageFix"/>
<feColorMatrix in="SourceAlpha" type="matrix" values="0 0 0 0 0 0 0 0 0 0 0 0 0 0 0 0 0 0 127 0" result="hardAlpha"/>
<feOffset dy="2"/>
<feGaussianBlur stdDeviation="5"/>
<feColorMatrix type="matrix" values="0 0 0 0 0 0 0 0 0 0 0 0 0 0 0 0 0 0 0.05 0"/>
<feBlend mode="normal" in2="BackgroundImageFix" result="effect1_dropShadow_401_2216"/>
<feBlend mode="normal" in="SourceGraphic" in2="effect1_dropShadow_401_2216" result="shape"/>
</filter>
</defs>
</svg>
