<svg width="18" height="20" viewBox="0 0 18 20" fill="none" xmlns="http://www.w3.org/2000/svg">
<path d="M13.077 8.46154H4.61542C4.41141 8.46154 4.21575 8.3805 4.07149 8.23624C3.92724 8.09198 3.84619 7.89632 3.84619 7.69231V5C3.84619 2.24308 6.08927 0 8.84619 0C11.6031 0 13.8462 2.24308 13.8462 5V7.69231C13.8462 7.89632 13.7651 8.09198 13.6209 8.23624C13.4766 8.3805 13.281 8.46154 13.077 8.46154ZM5.38465 6.92308H12.3077V5C12.3077 3.09154 10.7547 1.53846 8.84619 1.53846C6.93773 1.53846 5.38465 3.09154 5.38465 5V6.92308Z" fill="#7A7C87"/>
<path d="M15.3846 20H2.30769C1.03538 20 0 18.9646 0 17.6923V9.23079C0 7.95848 1.03538 6.9231 2.30769 6.9231H15.3846C16.6569 6.9231 17.6923 7.95848 17.6923 9.23079V17.6923C17.6923 18.9646 16.6569 20 15.3846 20ZM2.30769 8.46156C2.10368 8.46156 1.90802 8.5426 1.76376 8.68686C1.61951 8.83112 1.53846 9.02678 1.53846 9.23079V17.6923C1.53846 17.8963 1.61951 18.092 1.76376 18.2363C1.90802 18.3805 2.10368 18.4616 2.30769 18.4616H15.3846C15.5886 18.4616 15.7843 18.3805 15.9285 18.2363C16.0728 18.092 16.1538 17.8963 16.1538 17.6923V9.23079C16.1538 9.02678 16.0728 8.83112 15.9285 8.68686C15.7843 8.5426 15.5886 8.46156 15.3846 8.46156H2.30769Z" fill="#7A7C87"/>
</svg>
