<svg width="25" height="36" viewBox="0 0 25 36" fill="none" xmlns="http://www.w3.org/2000/svg">
<path fill-rule="evenodd" clip-rule="evenodd" d="M5.55536 1.93811C7.61096 0.674469 10.0277 0 12.5 0C15.8152 0 18.9946 1.21161 21.3388 3.36829C23.683 5.52493 25 8.45001 25 11.5C25 13.7745 24.2669 15.9979 22.8934 17.889C21.5198 19.7802 19.5676 21.2542 17.2836 22.1246C14.9995 22.995 12.4861 23.2227 10.0614 22.779C7.6366 22.3353 5.4093 21.24 3.66119 19.6317C1.91303 18.0234 0.722535 15.9743 0.240174 13.7435C-0.242126 11.5128 0.00543279 9.2005 0.951539 7.09915C1.89758 4.9978 3.49976 3.20172 5.55536 1.93811ZM16.7159 10.5525C16.8331 10.5076 16.9395 10.4418 17.0289 10.3589C17.119 10.2766 17.1905 10.1788 17.2393 10.071C17.2881 9.96317 17.3133 9.84753 17.3133 9.73077C17.3133 9.61398 17.2881 9.49835 17.2393 9.39056C17.1905 9.28278 17.119 9.18494 17.0289 9.10269L13.1827 5.56424C13.0912 5.4837 12.9834 5.42056 12.8654 5.37845C12.6313 5.28998 12.3687 5.28998 12.1346 5.37845C12.0166 5.42056 11.9088 5.4837 11.8173 5.56424L7.97113 9.10269C7.7901 9.26926 7.68836 9.49518 7.68836 9.73077C7.68836 9.96634 7.7901 10.1923 7.97113 10.3589C8.15222 10.5254 8.39777 10.619 8.65387 10.619C8.90991 10.619 9.15546 10.5254 9.33655 10.3589L11.5385 8.32422V16.8077C11.5385 17.0423 11.6398 17.2673 11.8201 17.4332C12.0004 17.5991 12.245 17.6923 12.5 17.6923C12.755 17.6923 12.9996 17.5991 13.1799 17.4332C13.3602 17.2673 13.4615 17.0423 13.4615 16.8077V8.32422L15.6635 10.3589C15.7529 10.4418 15.8592 10.5076 15.9764 10.5525C16.0936 10.5974 16.2192 10.6205 16.3461 10.6205C16.4215 10.6205 16.4964 10.6124 16.5694 10.5963C16.6193 10.5854 16.6683 10.5707 16.7159 10.5525ZM11.368 32.992V32.4H9.69598V30.72H9.104V32.4H7.43201V32.992H9.104V34.664H9.69598V32.992H11.368ZM12.7569 34.344C13.1409 34.824 13.6822 35.064 14.3809 35.064C14.7435 35.064 15.0635 34.984 15.3409 34.824C15.6235 34.664 15.8448 34.4453 16.0049 34.168C16.1649 33.8853 16.2449 33.5653 16.2449 33.208C16.2449 32.8507 16.1702 32.536 16.0209 32.264C15.8769 31.9867 15.6716 31.7733 15.4048 31.624C15.1382 31.4693 14.8315 31.392 14.4849 31.392C14.2182 31.392 13.9729 31.4427 13.7489 31.544C13.5302 31.6453 13.3462 31.7893 13.1969 31.976C13.1191 32.0704 13.0552 32.1749 13.0049 32.2895V32.264C13.0049 31.512 13.1302 30.9333 13.3809 30.528C13.6369 30.1173 13.9969 29.912 14.4609 29.912C14.7009 29.912 14.9435 29.9627 15.1889 30.064C15.4342 30.16 15.6876 30.3173 15.9489 30.536L16.2449 29.92C16.0049 29.7013 15.7275 29.5333 15.4129 29.416C15.0982 29.2987 14.7729 29.24 14.4369 29.24C13.9675 29.24 13.5622 29.36 13.2209 29.6C12.8849 29.84 12.6262 30.1867 12.4449 30.64C12.2689 31.0933 12.1808 31.64 12.1808 32.28C12.1808 33.176 12.3729 33.864 12.7569 34.344ZM15.1409 34.072C14.9382 34.2853 14.6716 34.392 14.3409 34.392C14.1116 34.392 13.9089 34.344 13.7328 34.248C13.5622 34.1467 13.4289 34.0107 13.3329 33.84C13.2369 33.664 13.1889 33.4587 13.1889 33.224C13.1889 33 13.2369 32.8 13.3329 32.624C13.4289 32.448 13.5622 32.312 13.7328 32.216C13.9089 32.1147 14.1089 32.064 14.3329 32.064C14.6689 32.064 14.9382 32.1707 15.1409 32.384C15.3489 32.5973 15.4529 32.8773 15.4529 33.224C15.4529 33.576 15.3489 33.8587 15.1409 34.072Z" fill="#2ED47A"/>
</svg>
