<svg width="122" height="122" viewBox="0 0 122 122" fill="none" xmlns="http://www.w3.org/2000/svg">
<g opacity="0.03">
<path d="M5.97131 39.6731C5.7842 39.6731 5.59416 39.638 5.40997 39.5591L0.901664 37.685C0.156127 37.3751 -0.197637 36.5185 0.112272 35.7759C0.422182 35.0274 1.28174 34.6736 2.02143 34.9865L6.53266 36.8635C7.2782 37.1734 7.63196 38.0271 7.31913 38.7726C7.08816 39.334 6.54435 39.6731 5.97131 39.6731Z" fill="#13132A"/>
</g>
<path d="M61.0033 103.672C84.571 103.672 103.677 84.563 103.677 60.9953C103.677 37.4275 84.571 18.3242 61.0033 18.3242C37.4356 18.3242 18.3293 37.4275 18.3293 60.9953C18.3293 84.563 37.4356 103.672 61.0033 103.672Z" fill="#13132A"/>
<path d="M56.5976 80.0909L41.9792 63.3879C39.8537 60.9584 40.1022 57.2628 42.5318 55.1344C44.9643 53.006 48.6569 53.2545 50.7854 55.687L56.6327 62.3734L74.1572 42.51C76.2944 40.0892 79.9929 39.8611 82.4137 41.9954C84.8345 44.1326 85.0654 47.8281 82.9282 50.2489L56.5976 80.0909Z" fill="#00DD9D"/>
<path d="M85.662 121.999C85.0919 121.999 84.5452 121.659 84.3113 121.098L82.4343 116.587C82.1273 115.841 82.4781 114.988 83.2237 114.675C83.9751 114.377 84.8259 114.719 85.1358 115.464L87.0128 119.975C87.3197 120.721 86.9689 121.578 86.2234 121.89C86.0392 121.963 85.8491 121.999 85.662 121.999Z" fill="#13132A"/>
<g opacity="0.66667">
<path d="M100.921 102.383C100.547 102.383 100.172 102.24 99.8858 101.956L96.8628 98.9302C96.2927 98.3601 96.2927 97.4362 96.8628 96.8631C97.4358 96.293 98.3597 96.293 98.9298 96.8631L101.956 99.8862C102.526 100.459 102.526 101.383 101.956 101.956C101.669 102.24 101.295 102.383 100.921 102.383Z" fill="#13132A"/>
</g>
<path d="M120.535 87.1251C120.348 87.1251 120.158 87.0871 119.974 87.014L115.463 85.137C114.717 84.8271 114.366 83.9734 114.673 83.2249C114.986 82.4794 115.84 82.1373 116.588 82.4355L121.1 84.3125C121.845 84.6253 122.196 85.479 121.889 86.2246C121.655 86.7859 121.105 87.1251 120.535 87.1251Z" fill="#13132A"/>
<g opacity="0.66667">
<path d="M117.454 62.4608H113.185C112.378 62.4608 111.724 61.8059 111.724 60.9989C111.724 60.192 112.378 59.5371 113.185 59.5371H117.454C118.261 59.5371 118.916 60.192 118.916 60.9989C118.916 61.8059 118.261 62.4608 117.454 62.4608Z" fill="#13132A"/>
</g>
<g opacity="0.5">
<path d="M116.027 39.6761C115.457 39.6761 114.907 39.337 114.673 38.7756C114.366 38.0301 114.717 37.1734 115.463 36.8606L119.974 34.9836C120.722 34.6825 121.576 35.0304 121.889 35.7788C122.196 36.5215 121.845 37.3781 121.1 37.688L116.588 39.565C116.404 39.641 116.214 39.6761 116.027 39.6761Z" fill="#13132A"/>
</g>
<path d="M97.8977 25.5659C97.5235 25.5659 97.1493 25.4197 96.8628 25.1361C96.2927 24.5631 96.2927 23.6421 96.8628 23.0691L99.8888 20.046C100.459 19.473 101.383 19.473 101.956 20.046C102.526 20.6161 102.526 21.5429 101.956 22.113L98.9327 25.1361C98.6462 25.4197 98.272 25.5659 97.8977 25.5659Z" fill="#13132A"/>
<path d="M83.7878 7.43396C83.6007 7.43396 83.4107 7.39887 83.2265 7.31993C82.481 7.01003 82.1301 6.15631 82.4371 5.41078L84.3141 0.902468C84.624 0.151084 85.4748 -0.196833 86.2262 0.113076C86.9717 0.422985 87.3225 1.27962 87.0156 2.02224L85.1386 6.53347C84.9047 7.09481 84.3579 7.43396 83.7878 7.43396Z" fill="#13132A"/>
<path d="M61.001 10.2728C60.1941 10.2728 59.5392 9.61791 59.5392 8.81097V4.5424C59.5392 3.73547 60.1941 3.08057 61.001 3.08057C61.808 3.08057 62.4629 3.73547 62.4629 4.5424V8.81097C62.4629 9.61791 61.808 10.2728 61.001 10.2728Z" fill="#13132A"/>
<g opacity="0.66667">
<path d="M38.211 7.43383C37.638 7.43383 37.0942 7.09469 36.8632 6.53334L34.9862 2.02211C34.6763 1.2795 35.033 0.422864 35.7785 0.112954C36.5211 -0.194031 37.3778 0.153886 37.6877 0.899422L39.5588 5.41065C39.8717 6.15619 39.5179 7.0099 38.7724 7.31981C38.5882 7.39875 38.3981 7.43383 38.211 7.43383Z" fill="#13132A"/>
</g>
<path d="M24.1013 25.5664C23.727 25.5664 23.3528 25.4202 23.0663 25.1366L20.0461 22.1135C19.4731 21.5434 19.4731 20.6166 20.0461 20.0465C20.6162 19.4734 21.543 19.4734 22.1132 20.0465L25.1362 23.0696C25.7064 23.6426 25.7064 24.5636 25.1362 25.1366C24.8497 25.4202 24.4755 25.5664 24.1013 25.5664Z" fill="#13132A"/>
<g opacity="0.515">
<path d="M5.97131 39.6731C5.7842 39.6731 5.59416 39.638 5.40997 39.5591L0.901664 37.685C0.156127 37.3751 -0.197637 36.5185 0.112272 35.7759C0.422182 35.0274 1.28174 34.6736 2.02143 34.9865L6.53266 36.8635C7.2782 37.1734 7.63196 38.0271 7.31913 38.7726C7.08816 39.334 6.54435 39.6731 5.97131 39.6731Z" fill="#13132A"/>
</g>
<path d="M8.81597 62.4608H4.54741C3.74047 62.4608 3.08557 61.8059 3.08557 60.9989C3.08557 60.192 3.74047 59.5371 4.54741 59.5371H8.81597C9.62291 59.5371 10.2778 60.192 10.2778 60.9989C10.2778 61.8059 9.62291 62.4608 8.81597 62.4608Z" fill="#13132A"/>
<g opacity="0.5">
<path d="M1.46322 87.1245C0.890184 87.1245 0.346381 86.7853 0.11541 86.224C-0.197423 85.4814 0.156342 84.6218 0.901879 84.309L5.41311 82.432C6.1528 82.1308 7.01236 82.4817 7.32227 83.2243C7.63218 83.9698 7.27841 84.8265 6.53287 85.1364L2.02457 87.0134C1.84038 87.0865 1.65034 87.1245 1.46322 87.1245Z" fill="#13132A"/>
</g>
<path d="M21.081 102.383C20.7067 102.383 20.3325 102.24 20.046 101.956C19.4759 101.383 19.4759 100.459 20.046 99.8862L23.0691 96.8631C23.6392 96.293 24.566 96.293 25.1361 96.8631C25.7092 97.4362 25.7092 98.3601 25.1361 98.9302L22.116 101.956C21.8294 102.24 21.4552 102.383 21.081 102.383Z" fill="#13132A"/>
<g opacity="0.66667">
<path d="M35.3338 118.098C34.9596 118.098 34.5853 117.955 34.2988 117.671C33.7287 117.098 33.7287 116.174 34.2988 115.601L37.3219 112.578C37.892 112.008 38.8188 112.008 39.3889 112.578C39.962 113.151 39.962 114.075 39.3889 114.645L36.3688 117.671C36.0822 117.955 35.708 118.098 35.3338 118.098Z" fill="#13132A"/>
</g>
<path d="M61.0033 103.672C84.571 103.672 103.677 84.563 103.677 60.9953C103.677 37.4275 84.571 18.3242 61.0033 18.3242C37.4356 18.3242 18.3293 37.4275 18.3293 60.9953C18.3293 84.563 37.4356 103.672 61.0033 103.672Z" fill="#13132A"/>
<path d="M56.5976 80.0909L41.9792 63.3879C39.8537 60.9584 40.1022 57.2628 42.5318 55.1344C44.9643 53.006 48.6569 53.2545 50.7854 55.687L56.6327 62.3734L74.1572 42.51C76.2944 40.0892 79.9929 39.8611 82.4137 41.9954C84.8345 44.1326 85.0654 47.8281 82.9282 50.2489L56.5976 80.0909Z" fill="#00DD9D"/>
</svg>
