<svg width="13" height="13" viewBox="0 0 13 13" fill="none" xmlns="http://www.w3.org/2000/svg">
<path d="M6.5 9.75C6.68417 9.75 6.83865 9.6876 6.96345 9.5628C7.08782 9.43843 7.15 9.28417 7.15 9.1V7.15H9.11625C9.30042 7.15 9.45208 7.0876 9.57125 6.9628C9.69042 6.83843 9.75 6.68417 9.75 6.5C9.75 6.31583 9.6876 6.16135 9.5628 6.03655C9.43843 5.91218 9.28417 5.85 9.1 5.85H7.15V3.88375C7.15 3.69958 7.08782 3.54792 6.96345 3.42875C6.83865 3.30958 6.68417 3.25 6.5 3.25C6.31583 3.25 6.16157 3.31218 6.0372 3.43655C5.9124 3.56135 5.85 3.71583 5.85 3.9V5.85H3.88375C3.69958 5.85 3.54792 5.91218 3.42875 6.03655C3.30958 6.16135 3.25 6.31583 3.25 6.5C3.25 6.68417 3.31218 6.83843 3.43655 6.9628C3.56135 7.0876 3.71583 7.15 3.9 7.15H5.85V9.11625C5.85 9.30042 5.9124 9.45208 6.0372 9.57125C6.16157 9.69042 6.31583 9.75 6.5 9.75ZM6.5 13C5.60083 13 4.75583 12.8293 3.965 12.4878C3.17417 12.1468 2.48625 11.6838 1.90125 11.0988C1.31625 10.5138 0.853233 9.82583 0.5122 9.035C0.170733 8.24417 0 7.39917 0 6.5C0 5.60083 0.170733 4.75583 0.5122 3.965C0.853233 3.17417 1.31625 2.48625 1.90125 1.90125C2.48625 1.31625 3.17417 0.853017 3.965 0.51155C4.75583 0.170517 5.60083 0 6.5 0C7.39917 0 8.24417 0.170517 9.035 0.51155C9.82583 0.853017 10.5138 1.31625 11.0988 1.90125C11.6838 2.48625 12.1468 3.17417 12.4878 3.965C12.8293 4.75583 13 5.60083 13 6.5C13 7.39917 12.8293 8.24417 12.4878 9.035C12.1468 9.82583 11.6838 10.5138 11.0988 11.0988C10.5138 11.6838 9.82583 12.1468 9.035 12.4878C8.24417 12.8293 7.39917 13 6.5 13ZM6.5 11.7C7.94083 11.7 9.16782 11.1936 10.181 10.181C11.1936 9.16782 11.7 7.94083 11.7 6.5C11.7 5.05917 11.1936 3.83218 10.181 2.81905C9.16782 1.80635 7.94083 1.3 6.5 1.3C5.05917 1.3 3.8324 1.80635 2.8197 2.81905C1.80657 3.83218 1.3 5.05917 1.3 6.5C1.3 7.94083 1.80657 9.16782 2.8197 10.181C3.8324 11.1936 5.05917 11.7 6.5 11.7Z" fill="#142E65"/>
</svg>
