<svg width="342" height="147" viewBox="0 0 342 147" fill="none" xmlns="http://www.w3.org/2000/svg">
<path d="M6.13492 107.566H4.98292V102.082H3.09892V101.254C3.62692 101.246 4.07092 101.11 4.43092 100.846C4.79092 100.574 5.01492 100.222 5.10292 99.7904H6.13492V107.566ZM9.77598 101.158C9.31998 101.638 9.09198 102.478 9.09198 103.678C9.09198 104.878 9.31998 105.718 9.77598 106.198C10.096 106.534 10.508 106.702 11.012 106.702C11.516 106.702 11.928 106.534 12.248 106.198C12.704 105.718 12.932 104.878 12.932 103.678C12.932 102.478 12.704 101.638 12.248 101.158C11.928 100.822 11.516 100.654 11.012 100.654C10.508 100.654 10.096 100.822 9.77598 101.158ZM8.62398 106.498C8.15998 105.81 7.92798 104.87 7.92798 103.678C7.92798 102.486 8.15998 101.546 8.62398 100.858C9.17598 100.026 9.97198 99.6104 11.012 99.6104C12.052 99.6104 12.848 100.026 13.4 100.858C13.864 101.546 14.096 102.486 14.096 103.678C14.096 104.87 13.864 105.81 13.4 106.498C12.848 107.33 12.052 107.746 11.012 107.746C9.97198 107.746 9.17598 107.33 8.62398 106.498ZM17.3285 101.158C16.8725 101.638 16.6445 102.478 16.6445 103.678C16.6445 104.878 16.8725 105.718 17.3285 106.198C17.6485 106.534 18.0605 106.702 18.5645 106.702C19.0685 106.702 19.4805 106.534 19.8005 106.198C20.2565 105.718 20.4845 104.878 20.4845 103.678C20.4845 102.478 20.2565 101.638 19.8005 101.158C19.4805 100.822 19.0685 100.654 18.5645 100.654C18.0605 100.654 17.6485 100.822 17.3285 101.158ZM16.1765 106.498C15.7125 105.81 15.4805 104.87 15.4805 103.678C15.4805 102.486 15.7125 101.546 16.1765 100.858C16.7285 100.026 17.5245 99.6104 18.5645 99.6104C19.6045 99.6104 20.4005 100.026 20.9525 100.858C21.4165 101.546 21.6485 102.486 21.6485 103.678C21.6485 104.87 21.4165 105.81 20.9525 106.498C20.4005 107.33 19.6045 107.746 18.5645 107.746C17.5245 107.746 16.7285 107.33 16.1765 106.498Z" fill="#898CAA"/>
<path d="M2.07767 57.6956L3.20567 57.3596C3.23767 57.8396 3.41367 58.2276 3.73367 58.5236C4.06167 58.8196 4.46967 58.9676 4.95767 58.9676C5.42967 58.9676 5.82567 58.8236 6.14567 58.5356C6.46567 58.2476 6.62567 57.8676 6.62567 57.3956C6.62567 56.8836 6.46567 56.4876 6.14567 56.2076C5.82567 55.9276 5.42567 55.7876 4.94567 55.7876C4.36167 55.7876 3.88967 55.9756 3.52967 56.3516C3.41767 56.3116 3.23367 56.2396 2.97767 56.1356C2.72167 56.0316 2.52167 55.9516 2.37767 55.8956L3.38567 52.0316H7.48967V53.1116H4.16567L3.58967 55.3436C3.93367 54.9596 4.46167 54.7676 5.17367 54.7676C5.94967 54.7676 6.58167 54.9996 7.06967 55.4636C7.56567 55.9276 7.81367 56.5556 7.81367 57.3476C7.81367 58.0996 7.54967 58.7316 7.02167 59.2436C6.49367 59.7476 5.80567 59.9996 4.95767 59.9996C4.15767 59.9996 3.48967 59.7756 2.95367 59.3276C2.42567 58.8796 2.13367 58.3356 2.07767 57.6956ZM10.9199 53.3996C10.4639 53.8796 10.2359 54.7196 10.2359 55.9196C10.2359 57.1196 10.4639 57.9596 10.9199 58.4396C11.2399 58.7756 11.6519 58.9436 12.1559 58.9436C12.6599 58.9436 13.0719 58.7756 13.3919 58.4396C13.8479 57.9596 14.0759 57.1196 14.0759 55.9196C14.0759 54.7196 13.8479 53.8796 13.3919 53.3996C13.0719 53.0636 12.6599 52.8956 12.1559 52.8956C11.6519 52.8956 11.2399 53.0636 10.9199 53.3996ZM9.76789 58.7396C9.30389 58.0516 9.07189 57.1116 9.07189 55.9196C9.07189 54.7276 9.30389 53.7876 9.76789 53.0996C10.3199 52.2676 11.1159 51.8516 12.1559 51.8516C13.1959 51.8516 13.9919 52.2676 14.5439 53.0996C15.0079 53.7876 15.2399 54.7276 15.2399 55.9196C15.2399 57.1116 15.0079 58.0516 14.5439 58.7396C13.9919 59.5716 13.1959 59.9876 12.1559 59.9876C11.1159 59.9876 10.3199 59.5716 9.76789 58.7396ZM18.4724 53.3996C18.0164 53.8796 17.7884 54.7196 17.7884 55.9196C17.7884 57.1196 18.0164 57.9596 18.4724 58.4396C18.7924 58.7756 19.2044 58.9436 19.7084 58.9436C20.2124 58.9436 20.6244 58.7756 20.9444 58.4396C21.4004 57.9596 21.6284 57.1196 21.6284 55.9196C21.6284 54.7196 21.4004 53.8796 20.9444 53.3996C20.6244 53.0636 20.2124 52.8956 19.7084 52.8956C19.2044 52.8956 18.7924 53.0636 18.4724 53.3996ZM17.3204 58.7396C16.8564 58.0516 16.6244 57.1116 16.6244 55.9196C16.6244 54.7276 16.8564 53.7876 17.3204 53.0996C17.8724 52.2676 18.6684 51.8516 19.7084 51.8516C20.7484 51.8516 21.5444 52.2676 22.0964 53.0996C22.5604 53.7876 22.7924 54.7276 22.7924 55.9196C22.7924 57.1116 22.5604 58.0516 22.0964 58.7396C21.5444 59.5716 20.7484 59.9876 19.7084 59.9876C18.6684 59.9876 17.8724 59.5716 17.3204 58.7396Z" fill="#898CAA"/>
<path d="M7.48551 12.0488H6.33351V6.56483H4.44951V5.73683C4.97751 5.72883 5.42151 5.59283 5.78151 5.32883C6.14151 5.05683 6.36551 4.70483 6.45351 4.27283H7.48551V12.0488ZM11.1266 5.64083C10.6706 6.12083 10.4426 6.96083 10.4426 8.16083C10.4426 9.36083 10.6706 10.2008 11.1266 10.6808C11.4466 11.0168 11.8586 11.1848 12.3626 11.1848C12.8666 11.1848 13.2786 11.0168 13.5986 10.6808C14.0546 10.2008 14.2826 9.36083 14.2826 8.16083C14.2826 6.96083 14.0546 6.12083 13.5986 5.64083C13.2786 5.30483 12.8666 5.13683 12.3626 5.13683C11.8586 5.13683 11.4466 5.30483 11.1266 5.64083ZM9.97457 10.9808C9.51057 10.2928 9.27857 9.35283 9.27857 8.16083C9.27857 6.96883 9.51057 6.02883 9.97457 5.34083C10.5266 4.50883 11.3226 4.09283 12.3626 4.09283C13.4026 4.09283 14.1986 4.50883 14.7506 5.34083C15.2146 6.02883 15.4466 6.96883 15.4466 8.16083C15.4466 9.35283 15.2146 10.2928 14.7506 10.9808C14.1986 11.8128 13.4026 12.2288 12.3626 12.2288C11.3226 12.2288 10.5266 11.8128 9.97457 10.9808ZM18.6791 5.64083C18.2231 6.12083 17.9951 6.96083 17.9951 8.16083C17.9951 9.36083 18.2231 10.2008 18.6791 10.6808C18.9991 11.0168 19.4111 11.1848 19.9151 11.1848C20.4191 11.1848 20.8311 11.0168 21.1511 10.6808C21.6071 10.2008 21.8351 9.36083 21.8351 8.16083C21.8351 6.96083 21.6071 6.12083 21.1511 5.64083C20.8311 5.30483 20.4191 5.13683 19.9151 5.13683C19.4111 5.13683 18.9991 5.30483 18.6791 5.64083ZM17.5271 10.9808C17.0631 10.2928 16.8311 9.35283 16.8311 8.16083C16.8311 6.96883 17.0631 6.02883 17.5271 5.34083C18.0791 4.50883 18.8751 4.09283 19.9151 4.09283C20.9551 4.09283 21.7511 4.50883 22.3031 5.34083C22.7671 6.02883 22.9991 6.96883 22.9991 8.16083C22.9991 9.35283 22.7671 10.2928 22.3031 10.9808C21.7511 11.8128 20.9551 12.2288 19.9151 12.2288C18.8751 12.2288 18.0791 11.8128 17.5271 10.9808ZM26.2316 5.64083C25.7756 6.12083 25.5476 6.96083 25.5476 8.16083C25.5476 9.36083 25.7756 10.2008 26.2316 10.6808C26.5516 11.0168 26.9636 11.1848 27.4676 11.1848C27.9716 11.1848 28.3836 11.0168 28.7036 10.6808C29.1596 10.2008 29.3876 9.36083 29.3876 8.16083C29.3876 6.96083 29.1596 6.12083 28.7036 5.64083C28.3836 5.30483 27.9716 5.13683 27.4676 5.13683C26.9636 5.13683 26.5516 5.30483 26.2316 5.64083ZM25.0796 10.9808C24.6156 10.2928 24.3836 9.35283 24.3836 8.16083C24.3836 6.96883 24.6156 6.02883 25.0796 5.34083C25.6316 4.50883 26.4276 4.09283 27.4676 4.09283C28.5076 4.09283 29.3036 4.50883 29.8556 5.34083C30.3196 6.02883 30.5516 6.96883 30.5516 8.16083C30.5516 9.35283 30.3196 10.2928 29.8556 10.9808C29.3036 11.8128 28.5076 12.2288 27.4676 12.2288C26.4276 12.2288 25.6316 11.8128 25.0796 10.9808Z" fill="#898CAA"/>
<path d="M43.3508 137.729L42.2948 138.101C42.2388 137.733 42.0588 137.401 41.7548 137.105C41.4508 136.801 41.0308 136.649 40.4948 136.649C40.0228 136.649 39.6308 136.785 39.3188 137.057C39.0068 137.329 38.8508 137.665 38.8508 138.065C38.8508 138.377 38.9428 138.641 39.1268 138.857C39.3188 139.073 39.5908 139.221 39.9428 139.301L41.2148 139.577C41.9188 139.729 42.4628 140.017 42.8468 140.441C43.2308 140.857 43.4228 141.365 43.4228 141.965C43.4228 142.653 43.1508 143.245 42.6068 143.741C42.0628 144.237 41.3548 144.485 40.4828 144.485C39.5308 144.485 38.7828 144.237 38.2388 143.741C37.7028 143.237 37.3908 142.641 37.3028 141.953L38.4308 141.593C38.4788 142.105 38.6788 142.537 39.0308 142.889C39.3828 143.241 39.8628 143.417 40.4708 143.417C41.0308 143.417 41.4628 143.289 41.7668 143.033C42.0708 142.777 42.2228 142.453 42.2228 142.061C42.2228 141.741 42.1148 141.465 41.8988 141.233C41.6828 140.993 41.3668 140.829 40.9508 140.741L39.7388 140.477C39.1068 140.341 38.6028 140.073 38.2268 139.673C37.8508 139.273 37.6628 138.765 37.6628 138.149C37.6628 137.477 37.9348 136.889 38.4788 136.385C39.0308 135.873 39.6948 135.617 40.4708 135.617C41.3428 135.617 42.0108 135.829 42.4748 136.253C42.9388 136.677 43.2308 137.169 43.3508 137.729ZM48.6594 143.609C48.5074 143.897 48.2754 144.117 47.9634 144.269C47.6514 144.413 47.3154 144.485 46.9554 144.485C46.2994 144.485 45.7754 144.269 45.3834 143.837C44.9914 143.397 44.7954 142.841 44.7954 142.169V138.533H45.9234V142.001C45.9234 142.433 46.0274 142.789 46.2354 143.069C46.4514 143.349 46.7834 143.489 47.2314 143.489C47.6794 143.489 48.0194 143.357 48.2514 143.093C48.4834 142.821 48.5994 142.461 48.5994 142.013V138.533H49.7274V143.237C49.7274 143.613 49.7474 143.969 49.7874 144.305H48.7074C48.6754 144.129 48.6594 143.897 48.6594 143.609ZM53.0203 140.969V144.305H51.8923V138.533H52.9963V139.361C53.3803 138.697 53.9723 138.365 54.7723 138.365C55.4363 138.365 55.9443 138.577 56.2963 139.001C56.6563 139.425 56.8363 139.973 56.8363 140.645V144.305H55.7083V140.837C55.7083 139.869 55.2603 139.385 54.3643 139.385C53.9403 139.385 53.6083 139.537 53.3683 139.841C53.1363 140.137 53.0203 140.513 53.0203 140.969Z" fill="#898CAA"/>
<path d="M94.3457 144.305H93.1817V137.681L90.2777 144.305H89.1977L86.3177 137.681V144.305H85.1537V135.797H86.7497L89.7497 142.721L92.7737 135.797H94.3457V144.305ZM97.8171 142.937C98.1691 143.297 98.5971 143.477 99.1011 143.477C99.6051 143.477 100.029 143.297 100.373 142.937C100.725 142.569 100.901 142.061 100.901 141.413C100.901 140.773 100.725 140.273 100.373 139.913C100.029 139.545 99.6051 139.361 99.1011 139.361C98.5971 139.361 98.1691 139.545 97.8171 139.913C97.4731 140.273 97.3011 140.773 97.3011 141.413C97.3011 142.061 97.4731 142.569 97.8171 142.937ZM96.9771 139.229C97.5371 138.645 98.2451 138.353 99.1011 138.353C99.9571 138.353 100.661 138.645 101.213 139.229C101.773 139.805 102.053 140.533 102.053 141.413C102.053 142.301 101.777 143.037 101.225 143.621C100.673 144.197 99.9651 144.485 99.1011 144.485C98.2371 144.485 97.5291 144.197 96.9771 143.621C96.4251 143.037 96.1491 142.301 96.1491 141.413C96.1491 140.533 96.4251 139.805 96.9771 139.229ZM104.864 140.969V144.305H103.736V138.533H104.84V139.361C105.224 138.697 105.816 138.365 106.616 138.365C107.28 138.365 107.788 138.577 108.14 139.001C108.5 139.425 108.68 139.973 108.68 140.645V144.305H107.552V140.837C107.552 139.869 107.104 139.385 106.208 139.385C105.784 139.385 105.452 139.537 105.212 139.841C104.98 140.137 104.864 140.513 104.864 140.969Z" fill="#898CAA"/>
<path d="M142.902 136.889H140.058V144.305H138.882V136.889H136.038V135.797H142.902V136.889ZM146.886 143.609C146.734 143.897 146.502 144.117 146.19 144.269C145.878 144.413 145.542 144.485 145.182 144.485C144.526 144.485 144.002 144.269 143.61 143.837C143.218 143.397 143.022 142.841 143.022 142.169V138.533H144.15V142.001C144.15 142.433 144.254 142.789 144.462 143.069C144.678 143.349 145.01 143.489 145.458 143.489C145.906 143.489 146.246 143.357 146.478 143.093C146.71 142.821 146.826 142.461 146.826 142.013V138.533H147.954V143.237C147.954 143.613 147.974 143.969 148.014 144.305H146.934C146.902 144.129 146.886 143.897 146.886 143.609ZM150.793 140.825H153.949C153.933 140.393 153.789 140.041 153.517 139.769C153.245 139.489 152.861 139.349 152.365 139.349C151.917 139.349 151.549 139.497 151.261 139.793C150.973 140.081 150.817 140.425 150.793 140.825ZM154.117 142.325L155.089 142.661C154.921 143.197 154.609 143.637 154.153 143.981C153.697 144.317 153.145 144.485 152.497 144.485C151.689 144.485 151.001 144.209 150.433 143.657C149.873 143.097 149.593 142.345 149.593 141.401C149.593 140.521 149.865 139.793 150.409 139.217C150.953 138.641 151.601 138.353 152.353 138.353C153.225 138.353 153.905 138.629 154.393 139.181C154.881 139.725 155.125 140.457 155.125 141.377C155.125 141.521 155.117 141.641 155.101 141.737H150.757C150.765 142.249 150.933 142.669 151.261 142.997C151.597 143.325 152.009 143.489 152.497 143.489C153.321 143.489 153.861 143.101 154.117 142.325Z" fill="#898CAA"/>
<path d="M190.98 141.257L192.36 135.797H194.304L191.988 144.305H190.032L188.22 138.665L186.396 144.305H184.404L182.088 135.797H184.104L185.508 141.245L187.272 135.797H189.216L190.98 141.257ZM196.369 140.609H198.757C198.741 140.337 198.633 140.101 198.433 139.901C198.241 139.701 197.949 139.601 197.557 139.601C197.205 139.601 196.925 139.705 196.717 139.913C196.509 140.121 196.393 140.353 196.369 140.609ZM198.889 142.157L200.413 142.589C200.261 143.141 199.945 143.597 199.465 143.957C198.985 144.309 198.385 144.485 197.665 144.485C196.801 144.485 196.065 144.197 195.457 143.621C194.857 143.045 194.557 142.273 194.557 141.305C194.557 140.377 194.849 139.621 195.433 139.037C196.025 138.453 196.725 138.161 197.533 138.161C198.461 138.161 199.189 138.433 199.717 138.977C200.253 139.513 200.521 140.261 200.521 141.221C200.521 141.525 200.509 141.713 200.485 141.785H196.333C196.349 142.113 196.489 142.389 196.753 142.613C197.017 142.829 197.329 142.937 197.689 142.937C198.305 142.937 198.705 142.677 198.889 142.157ZM207.8 135.617V143.237C207.8 143.597 207.816 143.953 207.848 144.305H206.096C206.064 144.113 206.048 143.921 206.048 143.729C205.904 143.937 205.688 144.109 205.4 144.245C205.12 144.373 204.804 144.437 204.452 144.437C203.604 144.437 202.9 144.145 202.34 143.561C201.78 142.969 201.5 142.217 201.5 141.305C201.5 140.409 201.772 139.669 202.316 139.085C202.86 138.493 203.552 138.197 204.392 138.197C205.208 138.197 205.744 138.401 206 138.809V135.617H207.8ZM203.72 140.225C203.464 140.481 203.336 140.845 203.336 141.317C203.336 141.789 203.464 142.157 203.72 142.421C203.984 142.677 204.304 142.805 204.68 142.805C205.056 142.805 205.372 142.677 205.628 142.421C205.892 142.157 206.024 141.789 206.024 141.317C206.024 140.845 205.892 140.481 205.628 140.225C205.372 139.969 205.056 139.841 204.68 139.841C204.304 139.841 203.984 139.969 203.72 140.225Z" fill="#0E1566"/>
<path d="M241.89 136.889H239.046V144.305H237.87V136.889H235.026V135.797H241.89V136.889ZM244.336 140.909V144.305H243.208V135.617H244.336V139.205C244.72 138.645 245.304 138.365 246.088 138.365C246.752 138.365 247.26 138.577 247.612 139.001C247.972 139.425 248.152 139.973 248.152 140.645V144.305H247.024V140.837C247.024 139.869 246.576 139.385 245.68 139.385C245.264 139.385 244.94 139.529 244.708 139.817C244.476 140.097 244.352 140.461 244.336 140.909ZM253.873 143.609C253.721 143.897 253.489 144.117 253.177 144.269C252.865 144.413 252.529 144.485 252.169 144.485C251.513 144.485 250.989 144.269 250.597 143.837C250.205 143.397 250.009 142.841 250.009 142.169V138.533H251.137V142.001C251.137 142.433 251.241 142.789 251.449 143.069C251.665 143.349 251.997 143.489 252.445 143.489C252.893 143.489 253.233 143.357 253.465 143.093C253.697 142.821 253.813 142.461 253.813 142.013V138.533H254.941V143.237C254.941 143.613 254.961 143.969 255.001 144.305H253.921C253.889 144.129 253.873 143.897 253.873 143.609Z" fill="#898CAA"/>
<path d="M283.821 144.305H282.645V135.797H287.817V136.889H283.821V139.625H287.445V140.729H283.821V144.305ZM292.274 138.473V139.673C292.106 139.649 291.942 139.637 291.782 139.637C290.726 139.637 290.198 140.229 290.198 141.413V144.305H289.07V138.533H290.174V139.541C290.526 138.805 291.102 138.437 291.902 138.437C292.03 138.437 292.154 138.449 292.274 138.473ZM294.832 144.305H293.716V138.533H294.832V144.305ZM293.692 136.925C293.54 136.765 293.464 136.573 293.464 136.349C293.464 136.125 293.54 135.933 293.692 135.773C293.852 135.613 294.044 135.533 294.268 135.533C294.492 135.533 294.684 135.613 294.844 135.773C295.004 135.925 295.084 136.117 295.084 136.349C295.084 136.573 295.004 136.765 294.844 136.925C294.684 137.077 294.492 137.153 294.268 137.153C294.044 137.153 293.852 137.077 293.692 136.925Z" fill="#898CAA"/>
<path d="M327.709 137.729L326.653 138.101C326.597 137.733 326.417 137.401 326.113 137.105C325.809 136.801 325.389 136.649 324.853 136.649C324.381 136.649 323.989 136.785 323.677 137.057C323.365 137.329 323.209 137.665 323.209 138.065C323.209 138.377 323.301 138.641 323.485 138.857C323.677 139.073 323.949 139.221 324.301 139.301L325.573 139.577C326.277 139.729 326.821 140.017 327.205 140.441C327.589 140.857 327.781 141.365 327.781 141.965C327.781 142.653 327.509 143.245 326.965 143.741C326.421 144.237 325.713 144.485 324.841 144.485C323.889 144.485 323.141 144.237 322.597 143.741C322.061 143.237 321.749 142.641 321.661 141.953L322.789 141.593C322.837 142.105 323.037 142.537 323.389 142.889C323.741 143.241 324.221 143.417 324.829 143.417C325.389 143.417 325.821 143.289 326.125 143.033C326.429 142.777 326.581 142.453 326.581 142.061C326.581 141.741 326.473 141.465 326.257 141.233C326.041 140.993 325.725 140.829 325.309 140.741L324.097 140.477C323.465 140.341 322.961 140.073 322.585 139.673C322.209 139.273 322.021 138.765 322.021 138.149C322.021 137.477 322.293 136.889 322.837 136.385C323.389 135.873 324.053 135.617 324.829 135.617C325.701 135.617 326.369 135.829 326.833 136.253C327.297 136.677 327.589 137.169 327.709 137.729ZM329.1 142.757C329.1 142.261 329.26 141.865 329.58 141.569C329.9 141.265 330.324 141.077 330.852 141.005L332.412 140.777C332.708 140.737 332.856 140.593 332.856 140.345C332.856 140.041 332.752 139.793 332.544 139.601C332.336 139.409 332.024 139.313 331.608 139.313C331.224 139.313 330.92 139.421 330.696 139.637C330.472 139.845 330.34 140.125 330.3 140.477L329.22 140.225C329.276 139.673 329.528 139.225 329.976 138.881C330.424 138.529 330.96 138.353 331.584 138.353C332.4 138.353 333.004 138.553 333.396 138.953C333.788 139.345 333.984 139.849 333.984 140.465V143.357C333.984 143.701 334.008 144.017 334.056 144.305H332.952C332.912 144.065 332.892 143.805 332.892 143.525C332.732 143.781 332.496 144.005 332.184 144.197C331.88 144.389 331.496 144.485 331.032 144.485C330.464 144.485 330 144.317 329.64 143.981C329.28 143.637 329.1 143.229 329.1 142.757ZM331.188 143.537C331.692 143.537 332.096 143.401 332.4 143.129C332.704 142.857 332.856 142.425 332.856 141.833V141.569L331.092 141.833C330.836 141.873 330.632 141.965 330.48 142.109C330.328 142.253 330.252 142.449 330.252 142.697C330.252 142.921 330.336 143.117 330.504 143.285C330.68 143.453 330.908 143.537 331.188 143.537ZM337.493 136.709V138.533H338.741V139.553H337.493V142.553C337.493 142.825 337.553 143.025 337.673 143.153C337.801 143.281 338.009 143.345 338.297 143.345C338.465 143.345 338.613 143.329 338.741 143.297V144.257C338.549 144.329 338.293 144.365 337.973 144.365C337.477 144.365 337.085 144.221 336.797 143.933C336.509 143.645 336.365 143.241 336.365 142.721V139.553H335.261V138.533H335.573C335.869 138.533 336.089 138.453 336.233 138.293C336.385 138.125 336.461 137.909 336.461 137.645V136.709H337.493Z" fill="#898CAA"/>
<path d="M53.5234 83.6274C53.5234 83.6274 78.3185 71.3057 96.6443 70.8474C116.57 70.3491 124.354 83.6274 144.289 83.6274C167.66 83.6274 170.545 27.6025 195.379 27.6025C214.945 27.6025 224.864 69.8508 244.295 69.8508C264.405 69.8508 278.82 40.0015 298.646 40.0015C315.494 40.0015 340.496 40.0015 340.496 40.0015" stroke="#7DC6FA" stroke-width="3" stroke-linecap="round" stroke-linejoin="round"/>
<ellipse cx="245.066" cy="71.7324" rx="10.3045" ry="9.85644" fill="#0095FF"/>
<g filter="url(#filter0_d_1208_7140)">
<path d="M145.157 61.123C145.157 55.6002 149.634 51.123 155.157 51.123H217.149C222.672 51.123 227.149 55.6002 227.149 61.123V62.8599C227.149 66.1496 228.767 69.2288 231.476 71.095L233.982 72.8212L231.382 74.6118C228.732 76.4377 227.149 79.4504 227.149 82.6689C227.149 88.0725 222.768 92.4529 217.365 92.4529H155.157C149.634 92.4529 145.157 87.9757 145.157 82.4529V61.123Z" fill="white"/>
</g>
<path d="M177.156 72.8485L176.484 71.7145L179.158 69.2505H174.818V67.9905H180.978V69.2225L178.388 71.6165C179.125 71.6165 179.774 71.8592 180.334 72.3445C180.903 72.8298 181.188 73.5065 181.188 74.3745C181.188 75.1772 180.894 75.8632 180.306 76.4325C179.718 77.0018 178.915 77.2865 177.898 77.2865C176.899 77.2865 176.097 77.0112 175.49 76.4605C174.893 75.9005 174.571 75.2238 174.524 74.4305L175.868 74.1225C175.896 74.7105 176.097 75.1865 176.47 75.5505C176.853 75.9052 177.324 76.0825 177.884 76.0825C178.481 76.0825 178.948 75.9238 179.284 75.6065C179.629 75.2798 179.802 74.8785 179.802 74.4025C179.802 73.8518 179.62 73.4318 179.256 73.1425C178.892 72.8532 178.458 72.7085 177.954 72.7085C177.683 72.7085 177.417 72.7552 177.156 72.8485ZM184.88 69.5865C184.348 70.1465 184.082 71.1265 184.082 72.5265C184.082 73.9265 184.348 74.9065 184.88 75.4665C185.254 75.8585 185.734 76.0545 186.322 76.0545C186.91 76.0545 187.391 75.8585 187.764 75.4665C188.296 74.9065 188.562 73.9265 188.562 72.5265C188.562 71.1265 188.296 70.1465 187.764 69.5865C187.391 69.1945 186.91 68.9985 186.322 68.9985C185.734 68.9985 185.254 69.1945 184.88 69.5865ZM183.536 75.8165C182.995 75.0138 182.724 73.9172 182.724 72.5265C182.724 71.1358 182.995 70.0392 183.536 69.2365C184.18 68.2658 185.109 67.7805 186.322 67.7805C187.536 67.7805 188.464 68.2658 189.108 69.2365C189.65 70.0392 189.92 71.1358 189.92 72.5265C189.92 73.9172 189.65 75.0138 189.108 75.8165C188.464 76.7872 187.536 77.2725 186.322 77.2725C185.109 77.2725 184.18 76.7872 183.536 75.8165ZM193.692 69.5865C193.16 70.1465 192.894 71.1265 192.894 72.5265C192.894 73.9265 193.16 74.9065 193.692 75.4665C194.065 75.8585 194.546 76.0545 195.134 76.0545C195.722 76.0545 196.202 75.8585 196.576 75.4665C197.108 74.9065 197.374 73.9265 197.374 72.5265C197.374 71.1265 197.108 70.1465 196.576 69.5865C196.202 69.1945 195.722 68.9985 195.134 68.9985C194.546 68.9985 194.065 69.1945 193.692 69.5865ZM192.348 75.8165C191.806 75.0138 191.536 73.9172 191.536 72.5265C191.536 71.1358 191.806 70.0392 192.348 69.2365C192.992 68.2658 193.92 67.7805 195.134 67.7805C196.347 67.7805 197.276 68.2658 197.92 69.2365C198.461 70.0392 198.732 71.1358 198.732 72.5265C198.732 73.9172 198.461 75.0138 197.92 75.8165C197.276 76.7872 196.347 77.2725 195.134 77.2725C193.92 77.2725 192.992 76.7872 192.348 75.8165Z" fill="#0E1566"/>
<path d="M245.514 129.459V82.9326" stroke="#F4F6FD" stroke-width="1.5"/>
<defs>
<filter id="filter0_d_1208_7140" x="100.157" y="11.123" width="178.825" height="131.33" filterUnits="userSpaceOnUse" color-interpolation-filters="sRGB">
<feFlood flood-opacity="0" result="BackgroundImageFix"/>
<feColorMatrix in="SourceAlpha" type="matrix" values="0 0 0 0 0 0 0 0 0 0 0 0 0 0 0 0 0 0 127 0" result="hardAlpha"/>
<feOffset dy="5"/>
<feGaussianBlur stdDeviation="22.5"/>
<feColorMatrix type="matrix" values="0 0 0 0 0.0067361 0 0 0 0 0.0941708 0 0 0 0 0.404167 0 0 0 0.1 0"/>
<feBlend mode="normal" in2="BackgroundImageFix" result="effect1_dropShadow_1208_7140"/>
<feBlend mode="normal" in="SourceGraphic" in2="effect1_dropShadow_1208_7140" result="shape"/>
</filter>
</defs>
</svg>
