<svg width="22" height="22" viewBox="0 0 22 22" fill="none" xmlns="http://www.w3.org/2000/svg">
<path d="M15.02 16.6104C13.2115 18.0142 10.9361 18.676 8.65688 18.4611C6.37768 18.2463 4.266 17.171 2.7517 15.454C1.2374 13.7371 0.434296 11.5077 0.505869 9.21947C0.577441 6.93128 1.51831 4.75637 3.13695 3.13744C4.75588 1.5188 6.93079 0.577929 9.21898 0.506357C11.5072 0.434785 13.7366 1.23789 15.4536 2.75219C17.1705 4.26649 18.2458 6.37816 18.4606 8.65737C18.6755 10.9366 18.0137 13.212 16.61 15.0204L21.17 19.5804C21.318 19.7179 21.4263 19.8929 21.4833 20.0867C21.5403 20.2806 21.544 20.4863 21.494 20.682C21.4439 20.8778 21.342 21.0565 21.1989 21.1992C21.0558 21.3419 20.8769 21.4434 20.681 21.4929C20.4854 21.5431 20.2799 21.5396 20.0862 21.4828C19.8924 21.4261 19.7176 21.3182 19.58 21.1704L15.02 16.6104ZM16.25 9.50044C16.2633 8.60585 16.0986 7.71753 15.7655 6.88717C15.4324 6.0568 14.9375 5.30097 14.3096 4.66362C13.6816 4.02628 12.9333 3.52016 12.108 3.1747C11.2827 2.82924 10.3969 2.65133 9.5022 2.65133C8.60751 2.65133 7.72175 2.82924 6.89644 3.1747C6.07114 3.52016 5.32276 4.02628 4.69485 4.66362C4.06694 5.30097 3.57203 6.0568 3.23891 6.88717C2.90579 7.71753 2.74111 8.60585 2.75445 9.50044C2.78087 11.2726 3.50342 12.9633 4.766 14.2072C6.02857 15.4511 7.72981 16.1483 9.5022 16.1483C11.2746 16.1483 12.9758 15.4511 14.2384 14.2072C15.501 12.9633 16.2235 11.2726 16.25 9.50044Z" fill="black"/>
</svg>
