<svg width="24" height="37" viewBox="0 0 24 37" fill="none" xmlns="http://www.w3.org/2000/svg">
<path d="M10.368 32.4V32.992H6.432V32.4H10.368ZM8.104 30.72H8.696V34.664H8.104V30.72ZM13.3809 35.064C12.6822 35.064 12.1409 34.824 11.7569 34.344C11.3729 33.864 11.1809 33.176 11.1809 32.28C11.1809 31.64 11.2689 31.0933 11.4449 30.64C11.6262 30.1867 11.8849 29.84 12.2209 29.6C12.5622 29.36 12.9675 29.24 13.4369 29.24C13.7729 29.24 14.0982 29.2987 14.4129 29.416C14.7275 29.5333 15.0049 29.7013 15.2449 29.92L14.9489 30.536C14.6875 30.3173 14.4342 30.16 14.1889 30.064C13.9435 29.9627 13.7009 29.912 13.4609 29.912C12.9969 29.912 12.6369 30.1173 12.3809 30.528C12.1302 30.9333 12.0049 31.512 12.0049 32.264V32.84L11.9009 32.632C11.9489 32.376 12.0475 32.1573 12.1969 31.976C12.3462 31.7893 12.5302 31.6453 12.7489 31.544C12.9729 31.4427 13.2182 31.392 13.4849 31.392C13.8315 31.392 14.1382 31.4693 14.4049 31.624C14.6715 31.7733 14.8769 31.9867 15.0209 32.264C15.1702 32.536 15.2449 32.8507 15.2449 33.208C15.2449 33.5653 15.1649 33.8853 15.0049 34.168C14.8449 34.4453 14.6235 34.664 14.3409 34.824C14.0635 34.984 13.7435 35.064 13.3809 35.064ZM13.3409 34.392C13.6715 34.392 13.9382 34.2853 14.1409 34.072C14.3489 33.8587 14.4529 33.576 14.4529 33.224C14.4529 32.8773 14.3489 32.5973 14.1409 32.384C13.9382 32.1707 13.6689 32.064 13.3329 32.064C13.1089 32.064 12.9089 32.1147 12.7329 32.216C12.5622 32.312 12.4289 32.448 12.3329 32.624C12.2369 32.8 12.1889 33 12.1889 33.224C12.1889 33.4587 12.2369 33.664 12.3329 33.84C12.4289 34.0107 12.5622 34.1467 12.7329 34.248C12.9089 34.344 13.1115 34.392 13.3409 34.392Z" fill="#585858"/>
<path d="M12 23C9.62663 23 7.30655 22.3255 5.33316 21.0619C3.35977 19.7983 1.8217 18.0022 0.913451 15.9009C0.00519941 13.7995 -0.232441 11.4872 0.230582 9.25646C0.693605 7.02568 1.83649 4.97658 3.51472 3.36828C5.19295 1.75997 7.33115 0.664705 9.65892 0.220975C11.9867 -0.222755 14.3995 0.00498348 16.5922 0.875391C18.7849 1.7458 20.6591 3.21978 21.9776 5.11095C23.2962 7.00211 24 9.22552 24 11.5C24 14.55 22.7357 17.4751 20.4853 19.6317C18.2348 21.7884 15.1826 23 12 23V23ZM16.3477 12.6412C16.2619 12.5582 16.1598 12.4924 16.0473 12.4475C15.9348 12.4026 15.8142 12.3795 15.6923 12.3795C15.5705 12.3795 15.4498 12.4026 15.3373 12.4475C15.2248 12.4924 15.1227 12.5582 15.0369 12.6412L12.9231 14.6758V6.19231C12.9231 5.9577 12.8258 5.73269 12.6527 5.56679C12.4796 5.4009 12.2448 5.3077 12 5.3077C11.7552 5.3077 11.5204 5.4009 11.3473 5.56679C11.1742 5.73269 11.0769 5.9577 11.0769 6.19231V14.6758L8.96308 12.6412C8.78926 12.4746 8.55351 12.381 8.3077 12.381C8.06188 12.381 7.82613 12.4746 7.65231 12.6412C7.47849 12.8077 7.38084 13.0337 7.38084 13.2692C7.38084 13.5048 7.47849 13.7307 7.65231 13.8973L11.3446 17.4358C11.4324 17.5163 11.5359 17.5794 11.6492 17.6215C11.874 17.71 12.126 17.71 12.3508 17.6215C12.4641 17.5794 12.5676 17.5163 12.6554 17.4358L16.3477 13.8973C16.4342 13.8151 16.5029 13.7172 16.5497 13.6094C16.5966 13.5016 16.6207 13.386 16.6207 13.2692C16.6207 13.1525 16.5966 13.0368 16.5497 12.929C16.5029 12.8212 16.4342 12.7234 16.3477 12.6412Z" fill="#E30000"/>
</svg>
