<svg width="16" height="15" viewBox="0 0 16 15" fill="none" xmlns="http://www.w3.org/2000/svg">
<g clip-path="url(#clip0_1208_7349)">
<path d="M14.475 15H1.525C0.68125 15 0 14.3613 0 13.5703V1.42969C0 0.638672 0.68125 0 1.525 0H14.4781C15.3187 0 16 0.638672 16 1.42969V13.5732C16 14.3613 15.3188 15 14.475 15Z" fill="#FF884B"/>
<path opacity="0.2" d="M14.9094 1.05762C14.8031 0.949219 14.65 0.878906 14.4781 0.878906H1.525C1.2 0.878906 0.9375 1.125 0.9375 1.42969V13.5732C0.9375 13.7344 1.0125 13.8779 1.12812 13.9775L2.21875 15H14.475C15.3156 15 16 14.3613 16 13.5703V2.08008L14.9094 1.05762Z" fill="black"/>
<path d="M1.525 14.1211C1.20312 14.1211 0.9375 13.875 0.9375 13.5703V1.42969C0.9375 1.125 1.2 0.878906 1.525 0.878906H14.4781C14.8 0.878906 15.0656 1.125 15.0656 1.42969V13.5732C15.0656 13.875 14.8031 14.124 14.4781 14.124H1.525V14.1211Z" fill="#FFB946"/>
<path d="M6.42505 6.16113H6.65005V6.30176H6.42505V6.16113Z" fill="white"/>
<path d="M6.73462 6.81738H6.95962V6.95801H6.73462V6.81738Z" fill="white"/>
<path d="M6.42505 6.60059H6.65005V6.74121H6.42505V6.60059Z" fill="white"/>
<path d="M6.42505 7.74023H6.65005V7.88086H6.42505V7.74023Z" fill="white"/>
<path d="M6.73462 6.60059H6.95962V6.74121H6.73462V6.60059Z" fill="white"/>
<path d="M6.42505 6.38086H6.65005V6.52149H6.42505V6.38086Z" fill="white"/>
<path d="M6.42505 7.95996H6.65005V8.10059H6.42505V7.95996Z" fill="white"/>
<path d="M6.42505 8.17969H6.65005V8.32031H6.42505V8.17969Z" fill="white"/>
<path d="M6.73462 6.16113H6.95962V6.30176H6.73462V6.16113Z" fill="white"/>
<path d="M6.73462 6.38086H6.95962V6.52149H6.73462V6.38086Z" fill="white"/>
<path d="M6.42505 6.81738H6.65005V6.95801H6.42505V6.81738Z" fill="white"/>
<path d="M6.42505 5.45801H6.65005V5.59863H6.42505V5.45801Z" fill="white"/>
<path d="M6.42505 5.01855H6.65005V5.15918H6.42505V5.01855Z" fill="white"/>
<path d="M6.42505 5.23828H6.65005V5.37891H6.42505V5.23828Z" fill="white"/>
<path d="M9.3501 10.2451H9.5751V10.3857H9.3501V10.2451Z" fill="white"/>
<path d="M9.3501 10.4648H9.5751V10.6055H9.3501V10.4648Z" fill="white"/>
<path d="M6.42505 4.79883H6.65005V4.93945H6.42505V4.79883Z" fill="white"/>
<path d="M6.73462 5.23828H6.95962V5.37891H6.73462V5.23828Z" fill="white"/>
<path d="M6.73462 5.01855H6.95962V5.15918H6.73462V5.01855Z" fill="white"/>
<path d="M6.73462 5.45801H6.95962V5.59863H6.73462V5.45801Z" fill="white"/>
<path d="M6.73462 4.79883H6.95962V4.93945H6.73462V4.79883Z" fill="white"/>
<path d="M6.73462 10.6816H6.95962V10.8223H6.73462V10.6816Z" fill="white"/>
<path d="M6.42505 10.4648H6.65005V10.6055H6.42505V10.4648Z" fill="white"/>
<path d="M6.42505 10.2451H6.65005V10.3857H6.42505V10.2451Z" fill="white"/>
<path d="M6.42505 10.6816H6.65005V10.8223H6.42505V10.6816Z" fill="white"/>
<path d="M6.73462 9.10254H6.95962V9.24316H6.73462V9.10254Z" fill="white"/>
<path d="M6.42505 10.9014H6.65005V11.042H6.42505V10.9014Z" fill="white"/>
<path d="M6.73462 8.88281H6.95962V9.02344H6.73462V8.88281Z" fill="white"/>
<path d="M6.73462 10.4648H6.95962V10.6055H6.73462V10.4648Z" fill="white"/>
<path d="M6.73462 10.2451H6.95962V10.3857H6.73462V10.2451Z" fill="white"/>
<path d="M9.3501 10.6816H9.5751V10.8223H9.3501V10.6816Z" fill="white"/>
<path d="M6.73462 10.9014H6.95962V11.042H6.73462V10.9014Z" fill="white"/>
<path d="M6.42505 8.88281H6.65005V9.02344H6.42505V8.88281Z" fill="white"/>
<path d="M6.73462 7.95996H6.95962V8.10059H6.73462V7.95996Z" fill="white"/>
<path d="M6.73462 7.52344H6.95962V7.66406H6.73462V7.52344Z" fill="white"/>
<path d="M6.73462 8.17969H6.95962V8.32031H6.73462V8.17969Z" fill="white"/>
<path d="M6.42505 9.54199H6.65005V9.68262H6.42505V9.54199Z" fill="white"/>
<path d="M6.73462 9.32227H6.95962V9.46289H6.73462V9.32227Z" fill="white"/>
<path d="M6.73462 9.54199H6.95962V9.68262H6.73462V9.54199Z" fill="white"/>
<path d="M6.42505 9.32227H6.65005V9.46289H6.42505V9.32227Z" fill="white"/>
<path d="M6.42505 7.52344H6.65005V7.66406H6.42505V7.52344Z" fill="white"/>
<path d="M6.42505 9.10254H6.65005V9.24316H6.42505V9.10254Z" fill="white"/>
<path d="M6.73462 7.74023H6.95962V7.88086H6.73462V7.74023Z" fill="white"/>
<path d="M9.3501 6.81738H9.5751V6.95801H9.3501V6.81738Z" fill="white"/>
<path d="M9.3501 6.38086H9.5751V6.52149H9.3501V6.38086Z" fill="white"/>
<path d="M9.3501 6.60059H9.5751V6.74121H9.3501V6.60059Z" fill="white"/>
<path d="M9.04395 6.38086H9.26894V6.52149H9.04395V6.38086Z" fill="white"/>
<path d="M9.04395 6.16113H9.26894V6.30176H9.04395V6.16113Z" fill="white"/>
<path d="M9.3501 10.9014H9.5751V11.042H9.3501V10.9014Z" fill="white"/>
<path d="M9.04395 7.74023H9.26894V7.88086H9.04395V7.74023Z" fill="white"/>
<path d="M9.04395 6.60059H9.26894V6.74121H9.04395V6.60059Z" fill="white"/>
<path d="M9.04395 8.17969H9.26894V8.32031H9.04395V8.17969Z" fill="white"/>
<path d="M9.3501 6.16113H9.5751V6.30176H9.3501V6.16113Z" fill="white"/>
<path d="M9.3501 5.01855H9.5751V5.15918H9.3501V5.01855Z" fill="white"/>
<path d="M9.04395 6.81738H9.26894V6.95801H9.04395V6.81738Z" fill="white"/>
<path d="M9.04395 5.01855H9.26894V5.15918H9.04395V5.01855Z" fill="white"/>
<path d="M9.04395 4.79883H9.26894V4.93945H9.04395V4.79883Z" fill="white"/>
<path d="M9.04395 5.45801H9.26894V5.59863H9.04395V5.45801Z" fill="white"/>
<path d="M5.21265 2.37305V11.8389H10.7845V4.42969L5.21265 2.37305ZM7.12827 10.1924H7.0689V11.124H6.31577V10.1924H6.2564V10.0986H7.13139V10.1924H7.12827ZM7.12827 8.83008H7.0689V9.76172H6.31577V8.83008H6.2564V8.73633H7.13139V8.83008H7.12827ZM7.12827 7.4707H7.0689V8.40234H6.31577V7.4707H6.2564V7.37695H7.13139V7.4707H7.12827ZM7.12827 6.1084H7.0689V7.04004H6.31577V6.1084H6.2564V6.01465H7.13139V6.1084H7.12827ZM7.12827 4.74609H7.0689V5.67773H6.31577V4.74609H6.2564V4.65234H7.13139V4.74609H7.12827ZM9.74389 10.1924H9.68452V11.124H8.93139V10.1924H8.87202V10.0986H9.74702V10.1924H9.74389ZM9.74389 8.83008H9.68452V9.76172H8.93139V8.83008H8.87202V8.73633H9.74702V8.83008H9.74389ZM9.74389 7.4707H9.68452V8.40234H8.93139V7.4707H8.87202V7.37695H9.74702V7.4707H9.74389ZM9.74389 6.1084H9.68452V7.04004H8.93139V6.1084H8.87202V6.01465H9.74702V6.1084H9.74389ZM9.74389 4.74609H9.68452V5.67773H8.93139V4.74609H8.87202V4.65234H9.74702V4.74609H9.74389Z" fill="white"/>
<path d="M9.04395 5.23828H9.26894V5.37891H9.04395V5.23828Z" fill="white"/>
<path d="M9.3501 5.45801H9.5751V5.59863H9.3501V5.45801Z" fill="white"/>
<path d="M9.3501 4.79883H9.5751V4.93945H9.3501V4.79883Z" fill="white"/>
<path d="M9.04395 7.52344H9.26894V7.66406H9.04395V7.52344Z" fill="white"/>
<path d="M9.3501 5.23828H9.5751V5.37891H9.3501V5.23828Z" fill="white"/>
<path d="M9.04395 7.95996H9.26894V8.10059H9.04395V7.95996Z" fill="white"/>
<path d="M9.04395 10.4648H9.26894V10.6055H9.04395V10.4648Z" fill="white"/>
<path d="M9.04395 9.32227H9.26894V9.46289H9.04395V9.32227Z" fill="white"/>
<path d="M9.3501 9.54199H9.5751V9.68262H9.3501V9.54199Z" fill="white"/>
<path d="M9.04395 10.6816H9.26894V10.8223H9.04395V10.6816Z" fill="white"/>
<path d="M9.04395 8.88281H9.26894V9.02344H9.04395V8.88281Z" fill="white"/>
<path d="M9.04395 10.9014H9.26894V11.042H9.04395V10.9014Z" fill="white"/>
<path d="M9.3501 9.32227H9.5751V9.46289H9.3501V9.32227Z" fill="white"/>
<path d="M9.3501 8.88281H9.5751V9.02344H9.3501V8.88281Z" fill="white"/>
<path d="M9.3501 9.10254H9.5751V9.24316H9.3501V9.10254Z" fill="white"/>
<path d="M9.04395 9.10254H9.26894V9.24316H9.04395V9.10254Z" fill="white"/>
<path d="M9.04395 10.2451H9.26894V10.3857H9.04395V10.2451Z" fill="white"/>
<path d="M9.3501 7.74023H9.5751V7.88086H9.3501V7.74023Z" fill="white"/>
<path d="M9.3501 7.95996H9.5751V8.10059H9.3501V7.95996Z" fill="white"/>
<path d="M9.3501 8.17969H9.5751V8.32031H9.3501V8.17969Z" fill="white"/>
<path d="M9.04395 9.54199H9.26894V9.68262H9.04395V9.54199Z" fill="white"/>
<path d="M9.3501 7.52344H9.5751V7.66406H9.3501V7.52344Z" fill="white"/>
<path d="M4.92822 11.9941H11.0751V12.627H4.92822V11.9941Z" fill="white"/>
</g>
<defs>
<clipPath id="clip0_1208_7349">
<rect width="16" height="15" fill="white"/>
</clipPath>
</defs>
</svg>
